# MagicaVoxel @ Ephtracy

# group
g Lich_Skull

# material
mtllib Lich_Skull.mtl
usemtl palette

# normals
vn -1 0 0
vn 1 0 0
vn 0 0 1
vn 0 0 -1
vn 0 -1 0
vn 0 1 0

# texcoords
vt 0.841797 0.5
vt 0.958984 0.5
vt 0.994141 0.5

# verts
v -4.5 1 3.5
v -4.5 1 -2.5
v -4.5 2 5.5
v -4.5 2 3.5
v -4.5 2 -2.5
v -4.5 2 -3.5
v -4.5 4 2.5
v -4.5 4 0.5
v -4.5 5 1.5
v -4.5 5 0.5
v -4.5 6 2.5
v -4.5 6 1.5
v -4.5 7 5.5
v -4.5 7 4.5
v -4.5 8 4.5
v -4.5 8 3.5
v -4.5 8 -2.5
v -4.5 8 -3.5
v -4.5 9 3.5
v -4.5 9 -2.5
v -3.5 0 4.5
v -3.5 0 3.5
v -3.5 1 5.5
v -3.5 1 4.5
v -3.5 1 3.5
v -3.5 2 5.5
v -3.5 2 3.5
v -3.5 2 -3.5
v -3.5 2 -4.5
v -3.5 4 2.5
v -3.5 4 0.5
v -3.5 5 1.5
v -3.5 5 0.5
v -3.5 6 2.5
v -3.5 6 1.5
v -3.5 7 5.5
v -3.5 7 4.5
v -3.5 8 5.5
v -3.5 8 4.5
v -3.5 8 3.5
v -3.5 8 -2.5
v -3.5 8 -3.5
v -3.5 8 -4.5
v -3.5 9 4.5
v -3.5 9 3.5
v -3.5 9 -2.5
v -3.5 9 -3.5
v -3.5 10 3.5
v -3.5 10 -2.5
v -2.5 0 5.5
v -2.5 0 4.5
v -2.5 1 5.5
v -2.5 1 4.5
v -2.5 1 -3.5
v -2.5 1 -4.5
v -2.5 2 -3.5
v -2.5 2 -4.5
v -2.5 3 -4.5
v -2.5 3 -5.5
v -2.5 7 -4.5
v -2.5 7 -5.5
v -2.5 8 5.5
v -2.5 8 4.5
v -2.5 8 -3.5
v -2.5 8 -4.5
v -2.5 9 5.5
v -2.5 9 4.5
v -2.5 9 3.5
v -2.5 9 -2.5
v -2.5 9 -3.5
v -2.5 9 -4.5
v -2.5 10 4.5
v -2.5 10 3.5
v -2.5 10 -2.5
v -2.5 10 -3.5
v -2.5 11 3.5
v -2.5 11 -2.5
v -1.5 2 -4.5
v -1.5 2 -5.5
v -1.5 3 -4.5
v -1.5 3 -5.5
v -1.5 5 5.5
v -1.5 5 4.5
v -1.5 6 5.5
v -1.5 6 4.5
v -1.5 7 -4.5
v -1.5 7 -5.5
v -1.5 8 -4.5
v -1.5 8 -5.5
v -0.5 0 5.5
v -0.5 0 4.5
v -0.5 1 5.5
v -0.5 1 4.5
v -0.5 3 5.5
v -0.5 3 4.5
v -0.5 5 5.5
v -0.5 5 4.5
v 0.5 2 5.5
v 0.5 2 3.5
v 0.5 3 5.5
v 0.5 3 3.5
v 1.5 0 5.5
v 1.5 0 4.5
v 1.5 1 5.5
v 1.5 1 4.5
v 2.5 4 2.5
v 2.5 4 0.5
v 2.5 6 2.5
v 2.5 6 0.5
v 2.5 8 -2.5
v 2.5 8 -3.5
v 2.5 9 -2.5
v 2.5 9 -3.5
v 3.5 1 3.5
v 3.5 1 -2.5
v 3.5 2 -2.5
v 3.5 2 -3.5
v 3.5 3 5.5
v 3.5 3 4.5
v 3.5 3 3.5
v 3.5 4 2.5
v 3.5 4 0.5
v 3.5 6 5.5
v 3.5 6 4.5
v 3.5 6 3.5
v 3.5 6 2.5
v 3.5 6 0.5
v 3.5 8 -2.5
v 3.5 8 -3.5
v 3.5 9 3.5
v 3.5 9 -2.5
v -3.5 1 3.5
v -3.5 1 -2.5
v -3.5 2 -2.5
v -3.5 2 -3.5
v -3.5 3 5.5
v -3.5 3 4.5
v -3.5 3 3.5
v -3.5 4 2.5
v -3.5 4 0.5
v -3.5 6 5.5
v -3.5 6 4.5
v -3.5 6 3.5
v -3.5 6 2.5
v -3.5 6 0.5
v -3.5 8 -2.5
v -3.5 8 -3.5
v -3.5 9 3.5
v -3.5 9 -2.5
v -2.5 4 2.5
v -2.5 4 0.5
v -2.5 6 2.5
v -2.5 6 0.5
v -2.5 8 -2.5
v -2.5 8 -3.5
v -2.5 9 -2.5
v -2.5 9 -3.5
v -1.5 0 5.5
v -1.5 0 4.5
v -1.5 1 5.5
v -1.5 1 4.5
v -0.5 2 5.5
v -0.5 2 3.5
v -0.5 3 5.5
v -0.5 3 3.5
v 0.5 0 5.5
v 0.5 0 4.5
v 0.5 1 5.5
v 0.5 1 4.5
v 0.5 3 5.5
v 0.5 3 4.5
v 0.5 5 5.5
v 0.5 5 4.5
v 1.5 2 -4.5
v 1.5 2 -5.5
v 1.5 3 -4.5
v 1.5 3 -5.5
v 1.5 5 5.5
v 1.5 5 4.5
v 1.5 6 5.5
v 1.5 6 4.5
v 1.5 7 -4.5
v 1.5 7 -5.5
v 1.5 8 -4.5
v 1.5 8 -5.5
v 2.5 0 5.5
v 2.5 0 4.5
v 2.5 1 5.5
v 2.5 1 4.5
v 2.5 1 -3.5
v 2.5 1 -4.5
v 2.5 2 -3.5
v 2.5 2 -4.5
v 2.5 3 -4.5
v 2.5 3 -5.5
v 2.5 7 -4.5
v 2.5 7 -5.5
v 2.5 8 5.5
v 2.5 8 4.5
v 2.5 8 -3.5
v 2.5 8 -4.5
v 2.5 9 5.5
v 2.5 9 4.5
v 2.5 9 3.5
v 2.5 9 -2.5
v 2.5 9 -3.5
v 2.5 9 -4.5
v 2.5 10 4.5
v 2.5 10 3.5
v 2.5 10 -2.5
v 2.5 10 -3.5
v 2.5 11 3.5
v 2.5 11 -2.5
v 3.5 0 4.5
v 3.5 0 3.5
v 3.5 1 5.5
v 3.5 1 4.5
v 3.5 1 3.5
v 3.5 2 5.5
v 3.5 2 3.5
v 3.5 2 -3.5
v 3.5 2 -4.5
v 3.5 4 2.5
v 3.5 4 0.5
v 3.5 5 1.5
v 3.5 5 0.5
v 3.5 6 2.5
v 3.5 6 1.5
v 3.5 7 5.5
v 3.5 7 4.5
v 3.5 8 5.5
v 3.5 8 4.5
v 3.5 8 3.5
v 3.5 8 -2.5
v 3.5 8 -3.5
v 3.5 8 -4.5
v 3.5 9 4.5
v 3.5 9 3.5
v 3.5 9 -2.5
v 3.5 9 -3.5
v 3.5 10 3.5
v 3.5 10 -2.5
v 4.5 1 3.5
v 4.5 1 -2.5
v 4.5 2 5.5
v 4.5 2 3.5
v 4.5 2 -2.5
v 4.5 2 -3.5
v 4.5 4 2.5
v 4.5 4 0.5
v 4.5 5 1.5
v 4.5 5 0.5
v 4.5 6 2.5
v 4.5 6 1.5
v 4.5 7 5.5
v 4.5 7 4.5
v 4.5 8 4.5
v 4.5 8 3.5
v 4.5 8 -2.5
v 4.5 8 -3.5
v 4.5 9 3.5
v 4.5 9 -2.5
v -4.5 2 5.5
v -4.5 7 5.5
v -3.5 1 5.5
v -3.5 2 5.5
v -3.5 3 5.5
v -3.5 6 5.5
v -3.5 7 5.5
v -3.5 8 5.5
v -2.5 0 5.5
v -2.5 1 5.5
v -2.5 8 5.5
v -2.5 9 5.5
v -1.5 0 5.5
v -1.5 1 5.5
v -1.5 5 5.5
v -1.5 6 5.5
v -0.5 0 5.5
v -0.5 1 5.5
v -0.5 2 5.5
v -0.5 3 5.5
v -0.5 5 5.5
v 0.5 0 5.5
v 0.5 1 5.5
v 0.5 2 5.5
v 0.5 3 5.5
v 0.5 5 5.5
v 1.5 0 5.5
v 1.5 1 5.5
v 1.5 5 5.5
v 1.5 6 5.5
v 2.5 0 5.5
v 2.5 1 5.5
v 2.5 8 5.5
v 2.5 9 5.5
v 3.5 1 5.5
v 3.5 2 5.5
v 3.5 3 5.5
v 3.5 6 5.5
v 3.5 7 5.5
v 3.5 8 5.5
v 4.5 2 5.5
v 4.5 7 5.5
v -4.5 7 4.5
v -4.5 8 4.5
v -3.5 0 4.5
v -3.5 1 4.5
v -3.5 3 4.5
v -3.5 6 4.5
v -3.5 7 4.5
v -3.5 8 4.5
v -3.5 9 4.5
v -2.5 0 4.5
v -2.5 1 4.5
v -2.5 4 4.5
v -2.5 5 4.5
v -2.5 8 4.5
v -2.5 9 4.5
v -2.5 10 4.5
v -1.5 0 4.5
v -1.5 1 4.5
v -1.5 4 4.5
v -1.5 5 4.5
v -1.5 6 4.5
v -0.5 0 4.5
v -0.5 1 4.5
v -0.5 3 4.5
v -0.5 5 4.5
v 0.5 0 4.5
v 0.5 1 4.5
v 0.5 3 4.5
v 0.5 5 4.5
v 1.5 0 4.5
v 1.5 1 4.5
v 1.5 4 4.5
v 1.5 5 4.5
v 1.5 6 4.5
v 2.5 0 4.5
v 2.5 1 4.5
v 2.5 4 4.5
v 2.5 5 4.5
v 2.5 8 4.5
v 2.5 9 4.5
v 2.5 10 4.5
v 3.5 0 4.5
v 3.5 1 4.5
v 3.5 3 4.5
v 3.5 6 4.5
v 3.5 7 4.5
v 3.5 8 4.5
v 3.5 9 4.5
v 4.5 7 4.5
v 4.5 8 4.5
v -4.5 1 3.5
v -4.5 2 3.5
v -4.5 8 3.5
v -4.5 9 3.5
v -3.5 1 3.5
v -3.5 2 3.5
v -3.5 8 3.5
v -3.5 9 3.5
v -3.5 10 3.5
v -2.5 9 3.5
v -2.5 10 3.5
v -2.5 11 3.5
v 2.5 9 3.5
v 2.5 10 3.5
v 2.5 11 3.5
v 3.5 1 3.5
v 3.5 2 3.5
v 3.5 8 3.5
v 3.5 9 3.5
v 3.5 10 3.5
v 4.5 1 3.5
v 4.5 2 3.5
v 4.5 8 3.5
v 4.5 9 3.5
v -3.5 4 2.5
v -3.5 6 2.5
v -2.5 4 2.5
v -2.5 6 2.5
v 2.5 4 2.5
v 2.5 6 2.5
v 3.5 4 2.5
v 3.5 6 2.5
v -4.5 5 1.5
v -4.5 6 1.5
v -3.5 5 1.5
v -3.5 6 1.5
v 3.5 5 1.5
v 3.5 6 1.5
v 4.5 5 1.5
v 4.5 6 1.5
v -4.5 4 0.5
v -4.5 5 0.5
v -3.5 4 0.5
v -3.5 5 0.5
v 3.5 4 0.5
v 3.5 5 0.5
v 4.5 4 0.5
v 4.5 5 0.5
v -3.5 8 -2.5
v -3.5 9 -2.5
v -2.5 8 -2.5
v -2.5 9 -2.5
v 2.5 8 -2.5
v 2.5 9 -2.5
v 3.5 8 -2.5
v 3.5 9 -2.5
v -3.5 2 -3.5
v -3.5 8 -3.5
v -2.5 1 -3.5
v -2.5 2 -3.5
v -2.5 8 -3.5
v -2.5 9 -3.5
v 2.5 1 -3.5
v 2.5 2 -3.5
v 2.5 8 -3.5
v 2.5 9 -3.5
v 3.5 2 -3.5
v 3.5 8 -3.5
v -3.5 0 3.5
v -3.5 1 3.5
v -3.5 3 3.5
v -3.5 6 3.5
v -3.5 9 3.5
v -2.5 4 3.5
v -2.5 5 3.5
v -1.5 4 3.5
v -1.5 5 3.5
v -0.5 2 3.5
v -0.5 3 3.5
v -0.5 6 3.5
v 0.5 2 3.5
v 0.5 3 3.5
v 0.5 6 3.5
v 1.5 4 3.5
v 1.5 5 3.5
v 2.5 4 3.5
v 2.5 5 3.5
v 3.5 0 3.5
v 3.5 1 3.5
v 3.5 3 3.5
v 3.5 6 3.5
v 3.5 9 3.5
v -4.5 4 2.5
v -4.5 6 2.5
v -3.5 4 2.5
v -3.5 6 2.5
v 3.5 4 2.5
v 3.5 6 2.5
v 4.5 4 2.5
v 4.5 6 2.5
v -3.5 4 0.5
v -3.5 6 0.5
v -2.5 4 0.5
v -2.5 6 0.5
v 2.5 4 0.5
v 2.5 6 0.5
v 3.5 4 0.5
v 3.5 6 0.5
v -4.5 1 -2.5
v -4.5 2 -2.5
v -4.5 8 -2.5
v -4.5 9 -2.5
v -3.5 1 -2.5
v -3.5 2 -2.5
v -3.5 8 -2.5
v -3.5 9 -2.5
v -3.5 10 -2.5
v -2.5 9 -2.5
v -2.5 10 -2.5
v -2.5 11 -2.5
v 2.5 9 -2.5
v 2.5 10 -2.5
v 2.5 11 -2.5
v 3.5 1 -2.5
v 3.5 2 -2.5
v 3.5 8 -2.5
v 3.5 9 -2.5
v 3.5 10 -2.5
v 4.5 1 -2.5
v 4.5 2 -2.5
v 4.5 8 -2.5
v 4.5 9 -2.5
v -4.5 2 -3.5
v -4.5 8 -3.5
v -3.5 2 -3.5
v -3.5 8 -3.5
v -3.5 9 -3.5
v -2.5 8 -3.5
v -2.5 9 -3.5
v -2.5 10 -3.5
v 2.5 8 -3.5
v 2.5 9 -3.5
v 2.5 10 -3.5
v 3.5 2 -3.5
v 3.5 8 -3.5
v 3.5 9 -3.5
v 4.5 2 -3.5
v 4.5 8 -3.5
v -3.5 2 -4.5
v -3.5 8 -4.5
v -2.5 1 -4.5
v -2.5 2 -4.5
v -2.5 3 -4.5
v -2.5 7 -4.5
v -2.5 8 -4.5
v -2.5 9 -4.5
v -1.5 2 -4.5
v -1.5 3 -4.5
v -1.5 7 -4.5
v -1.5 8 -4.5
v 1.5 2 -4.5
v 1.5 3 -4.5
v 1.5 7 -4.5
v 1.5 8 -4.5
v 2.5 1 -4.5
v 2.5 2 -4.5
v 2.5 3 -4.5
v 2.5 7 -4.5
v 2.5 8 -4.5
v 2.5 9 -4.5
v 3.5 2 -4.5
v 3.5 8 -4.5
v -2.5 3 -5.5
v -2.5 7 -5.5
v -1.5 2 -5.5
v -1.5 3 -5.5
v -1.5 7 -5.5
v -1.5 8 -5.5
v 1.5 2 -5.5
v 1.5 3 -5.5
v 1.5 7 -5.5
v 1.5 8 -5.5
v 2.5 3 -5.5
v 2.5 7 -5.5
v -2.5 0 5.5
v -1.5 0 5.5
v -0.5 0 5.5
v 0.5 0 5.5
v 1.5 0 5.5
v 2.5 0 5.5
v -3.5 0 4.5
v -2.5 0 4.5
v -1.5 0 4.5
v -0.5 0 4.5
v 0.5 0 4.5
v 1.5 0 4.5
v 2.5 0 4.5
v 3.5 0 4.5
v -3.5 0 3.5
v 3.5 0 3.5
v -3.5 1 5.5
v -2.5 1 5.5
v -1.5 1 5.5
v -0.5 1 5.5
v 0.5 1 5.5
v 1.5 1 5.5
v 2.5 1 5.5
v 3.5 1 5.5
v -3.5 1 4.5
v -2.5 1 4.5
v -1.5 1 4.5
v -0.5 1 4.5
v 0.5 1 4.5
v 1.5 1 4.5
v 2.5 1 4.5
v 3.5 1 4.5
v -4.5 1 3.5
v -3.5 1 3.5
v 3.5 1 3.5
v 4.5 1 3.5
v -4.5 1 -2.5
v -3.5 1 -2.5
v 3.5 1 -2.5
v 4.5 1 -2.5
v -2.5 1 -3.5
v 2.5 1 -3.5
v -2.5 1 -4.5
v 2.5 1 -4.5
v -4.5 2 5.5
v -3.5 2 5.5
v 3.5 2 5.5
v 4.5 2 5.5
v -4.5 2 3.5
v -3.5 2 3.5
v 3.5 2 3.5
v 4.5 2 3.5
v -4.5 2 -2.5
v -3.5 2 -2.5
v 3.5 2 -2.5
v 4.5 2 -2.5
v -4.5 2 -3.5
v -3.5 2 -3.5
v -2.5 2 -3.5
v 2.5 2 -3.5
v 3.5 2 -3.5
v 4.5 2 -3.5
v -3.5 2 -4.5
v -2.5 2 -4.5
v -1.5 2 -4.5
v 1.5 2 -4.5
v 2.5 2 -4.5
v 3.5 2 -4.5
v -1.5 2 -5.5
v 1.5 2 -5.5
v -0.5 3 5.5
v 0.5 3 5.5
v -0.5 3 3.5
v 0.5 3 3.5
v -2.5 3 -4.5
v -1.5 3 -4.5
v 1.5 3 -4.5
v 2.5 3 -4.5
v -2.5 3 -5.5
v -1.5 3 -5.5
v 1.5 3 -5.5
v 2.5 3 -5.5
v -3.5 4 2.5
v -2.5 4 2.5
v 2.5 4 2.5
v 3.5 4 2.5
v -3.5 4 0.5
v -2.5 4 0.5
v 2.5 4 0.5
v 3.5 4 0.5
v -1.5 5 5.5
v -0.5 5 5.5
v 0.5 5 5.5
v 1.5 5 5.5
v -1.5 5 4.5
v -0.5 5 4.5
v 0.5 5 4.5
v 1.5 5 4.5
v -4.5 5 1.5
v -3.5 5 1.5
v 3.5 5 1.5
v 4.5 5 1.5
v -4.5 5 0.5
v -3.5 5 0.5
v 3.5 5 0.5
v 4.5 5 0.5
v -3.5 6 5.5
v -1.5 6 5.5
v 1.5 6 5.5
v 3.5 6 5.5
v -3.5 6 4.5
v -1.5 6 4.5
v 1.5 6 4.5
v 3.5 6 4.5
v -4.5 6 2.5
v -3.5 6 2.5
v 3.5 6 2.5
v 4.5 6 2.5
v -4.5 6 1.5
v -3.5 6 1.5
v 3.5 6 1.5
v 4.5 6 1.5
v -3.5 8 -2.5
v -2.5 8 -2.5
v 2.5 8 -2.5
v 3.5 8 -2.5
v -3.5 8 -3.5
v -2.5 8 -3.5
v 2.5 8 -3.5
v 3.5 8 -3.5
v -3.5 9 3.5
v 3.5 9 3.5
v -3.5 9 -2.5
v -2.5 9 -2.5
v 2.5 9 -2.5
v 3.5 9 -2.5
v -2.5 9 -3.5
v 2.5 9 -3.5
v -0.5 2 5.5
v 0.5 2 5.5
v -0.5 2 3.5
v 0.5 2 3.5
v -3.5 3 5.5
v -0.5 3 5.5
v 0.5 3 5.5
v 3.5 3 5.5
v -3.5 3 4.5
v -0.5 3 4.5
v 0.5 3 4.5
v 3.5 3 4.5
v -4.5 4 2.5
v -3.5 4 2.5
v 3.5 4 2.5
v 4.5 4 2.5
v -4.5 4 0.5
v -3.5 4 0.5
v 3.5 4 0.5
v 4.5 4 0.5
v -3.5 6 2.5
v -2.5 6 2.5
v 2.5 6 2.5
v 3.5 6 2.5
v -3.5 6 0.5
v -2.5 6 0.5
v 2.5 6 0.5
v 3.5 6 0.5
v -4.5 7 5.5
v -3.5 7 5.5
v 3.5 7 5.5
v 4.5 7 5.5
v -4.5 7 4.5
v -3.5 7 4.5
v 3.5 7 4.5
v 4.5 7 4.5
v -2.5 7 -4.5
v -1.5 7 -4.5
v 1.5 7 -4.5
v 2.5 7 -4.5
v -2.5 7 -5.5
v -1.5 7 -5.5
v 1.5 7 -5.5
v 2.5 7 -5.5
v -3.5 8 5.5
v -2.5 8 5.5
v 2.5 8 5.5
v 3.5 8 5.5
v -4.5 8 4.5
v -3.5 8 4.5
v -2.5 8 4.5
v 2.5 8 4.5
v 3.5 8 4.5
v 4.5 8 4.5
v -4.5 8 3.5
v -3.5 8 3.5
v 3.5 8 3.5
v 4.5 8 3.5
v -4.5 8 -2.5
v -3.5 8 -2.5
v 3.5 8 -2.5
v 4.5 8 -2.5
v -4.5 8 -3.5
v -3.5 8 -3.5
v -2.5 8 -3.5
v 2.5 8 -3.5
v 3.5 8 -3.5
v 4.5 8 -3.5
v -3.5 8 -4.5
v -2.5 8 -4.5
v -1.5 8 -4.5
v 1.5 8 -4.5
v 2.5 8 -4.5
v 3.5 8 -4.5
v -1.5 8 -5.5
v 1.5 8 -5.5
v -2.5 9 5.5
v 2.5 9 5.5
v -3.5 9 4.5
v -2.5 9 4.5
v 2.5 9 4.5
v 3.5 9 4.5
v -4.5 9 3.5
v -3.5 9 3.5
v -2.5 9 3.5
v 2.5 9 3.5
v 3.5 9 3.5
v 4.5 9 3.5
v -4.5 9 -2.5
v -3.5 9 -2.5
v -2.5 9 -2.5
v 2.5 9 -2.5
v 3.5 9 -2.5
v 4.5 9 -2.5
v -3.5 9 -3.5
v -2.5 9 -3.5
v 2.5 9 -3.5
v 3.5 9 -3.5
v -2.5 9 -4.5
v 2.5 9 -4.5
v -2.5 10 4.5
v 2.5 10 4.5
v -3.5 10 3.5
v -2.5 10 3.5
v 2.5 10 3.5
v 3.5 10 3.5
v -3.5 10 -2.5
v -2.5 10 -2.5
v 2.5 10 -2.5
v 3.5 10 -2.5
v -2.5 10 -3.5
v 2.5 10 -3.5
v -2.5 11 3.5
v 2.5 11 3.5
v -2.5 11 -2.5
v 2.5 11 -2.5

# faces
f 4/2/1 2/2/1 1/2/1
f 5/2/1 2/2/1 4/2/1
f 7/2/1 4/2/1 3/2/1
f 7/2/1 6/2/1 5/2/1
f 7/2/1 5/2/1 4/2/1
f 8/2/1 6/2/1 7/2/1
f 10/2/1 6/2/1 8/2/1
f 11/2/1 7/2/1 3/2/1
f 12/2/1 10/2/1 9/2/1
f 13/2/1 11/2/1 3/2/1
f 13/2/1 12/2/1 11/2/1
f 14/2/1 12/2/1 13/2/1
f 15/2/1 12/2/1 14/2/1
f 16/2/1 12/2/1 15/2/1
f 17/2/1 10/2/1 12/2/1
f 17/2/1 12/2/1 16/2/1
f 17/2/1 6/2/1 10/2/1
f 18/2/1 6/2/1 17/2/1
f 19/2/1 17/2/1 16/2/1
f 20/2/1 17/2/1 19/2/1
f 24/2/1 22/2/1 21/2/1
f 25/2/1 22/2/1 24/2/1
f 26/2/1 24/2/1 23/2/1
f 26/2/1 25/2/1 24/2/1
f 27/2/1 25/2/1 26/2/1
f 32/3/1 31/3/1 30/3/1
f 33/3/1 31/3/1 32/3/1
f 34/3/1 32/3/1 30/3/1
f 35/3/1 32/3/1 34/3/1
f 38/2/1 37/2/1 36/2/1
f 39/2/1 37/2/1 38/2/1
f 42/2/1 29/2/1 28/2/1
f 43/2/1 29/2/1 42/2/1
f 44/2/1 40/2/1 39/2/1
f 45/2/1 40/2/1 44/2/1
f 46/2/1 42/2/1 41/2/1
f 47/2/1 42/2/1 46/2/1
f 48/2/1 46/2/1 45/2/1
f 49/2/1 46/2/1 48/2/1
f 52/2/1 51/2/1 50/2/1
f 53/2/1 51/2/1 52/2/1
f 56/2/1 55/2/1 54/2/1
f 57/2/1 55/2/1 56/2/1
f 60/2/1 59/2/1 58/2/1
f 61/2/1 59/2/1 60/2/1
f 66/2/1 63/2/1 62/2/1
f 67/2/1 63/2/1 66/2/1
f 70/2/1 65/2/1 64/2/1
f 71/2/1 65/2/1 70/2/1
f 72/2/1 68/2/1 67/2/1
f 73/2/1 68/2/1 72/2/1
f 74/2/1 70/2/1 69/2/1
f 75/2/1 70/2/1 74/2/1
f 76/2/1 74/2/1 73/2/1
f 77/2/1 74/2/1 76/2/1
f 80/2/1 79/2/1 78/2/1
f 81/2/1 79/2/1 80/2/1
f 84/2/1 83/2/1 82/2/1
f 85/2/1 83/2/1 84/2/1
f 88/2/1 87/2/1 86/2/1
f 89/2/1 87/2/1 88/2/1
f 92/2/1 91/2/1 90/2/1
f 93/2/1 91/2/1 92/2/1
f 96/2/1 95/2/1 94/2/1
f 97/2/1 95/2/1 96/2/1
f 100/2/1 99/2/1 98/2/1
f 101/2/1 99/2/1 100/2/1
f 104/2/1 103/2/1 102/2/1
f 105/2/1 103/2/1 104/2/1
f 108/3/1 107/3/1 106/3/1
f 109/3/1 107/3/1 108/3/1
f 112/2/1 111/2/1 110/2/1
f 113/2/1 111/2/1 112/2/1
f 116/2/1 115/2/1 114/2/1
f 120/2/1 116/2/1 114/2/1
f 120/2/1 117/2/1 116/2/1
f 121/2/1 117/2/1 120/2/1
f 122/2/1 117/2/1 121/2/1
f 123/2/1 119/2/1 118/2/1
f 124/2/1 119/2/1 123/2/1
f 125/2/1 121/2/1 120/2/1
f 126/2/1 121/2/1 125/2/1
f 127/2/1 117/2/1 122/2/1
f 128/2/1 126/2/1 125/2/1
f 128/2/1 127/2/1 126/2/1
f 128/2/1 117/2/1 127/2/1
f 129/2/1 117/2/1 128/2/1
f 130/2/1 128/2/1 125/2/1
f 131/2/1 128/2/1 130/2/1
f 132/2/2 133/2/2 134/2/2
f 132/2/2 134/2/2 138/2/2
f 134/2/2 135/2/2 138/2/2
f 138/2/2 135/2/2 139/2/2
f 139/2/2 135/2/2 140/2/2
f 136/2/2 137/2/2 141/2/2
f 141/2/2 137/2/2 142/2/2
f 138/2/2 139/2/2 143/2/2
f 143/2/2 139/2/2 144/2/2
f 140/2/2 135/2/2 145/2/2
f 143/2/2 144/2/2 146/2/2
f 144/2/2 145/2/2 146/2/2
f 145/2/2 135/2/2 146/2/2
f 146/2/2 135/2/2 147/2/2
f 143/2/2 146/2/2 148/2/2
f 148/2/2 146/2/2 149/2/2
f 150/3/2 151/3/2 152/3/2
f 152/3/2 151/3/2 153/3/2
f 154/2/2 155/2/2 156/2/2
f 156/2/2 155/2/2 157/2/2
f 158/2/2 159/2/2 160/2/2
f 160/2/2 159/2/2 161/2/2
f 162/2/2 163/2/2 164/2/2
f 164/2/2 163/2/2 165/2/2
f 166/2/2 167/2/2 168/2/2
f 168/2/2 167/2/2 169/2/2
f 170/2/2 171/2/2 172/2/2
f 172/2/2 171/2/2 173/2/2
f 174/2/2 175/2/2 176/2/2
f 176/2/2 175/2/2 177/2/2
f 178/2/2 179/2/2 180/2/2
f 180/2/2 179/2/2 181/2/2
f 182/2/2 183/2/2 184/2/2
f 184/2/2 183/2/2 185/2/2
f 186/2/2 187/2/2 188/2/2
f 188/2/2 187/2/2 189/2/2
f 190/2/2 191/2/2 192/2/2
f 192/2/2 191/2/2 193/2/2
f 194/2/2 195/2/2 196/2/2
f 196/2/2 195/2/2 197/2/2
f 198/2/2 199/2/2 202/2/2
f 202/2/2 199/2/2 203/2/2
f 200/2/2 201/2/2 206/2/2
f 206/2/2 201/2/2 207/2/2
f 203/2/2 204/2/2 208/2/2
f 208/2/2 204/2/2 209/2/2
f 205/2/2 206/2/2 210/2/2
f 210/2/2 206/2/2 211/2/2
f 209/2/2 210/2/2 212/2/2
f 212/2/2 210/2/2 213/2/2
f 214/2/2 215/2/2 217/2/2
f 217/2/2 215/2/2 218/2/2
f 216/2/2 217/2/2 219/2/2
f 217/2/2 218/2/2 219/2/2
f 219/2/2 218/2/2 220/2/2
f 223/3/2 224/3/2 225/3/2
f 225/3/2 224/3/2 226/3/2
f 223/3/2 225/3/2 227/3/2
f 227/3/2 225/3/2 228/3/2
f 229/2/2 230/2/2 231/2/2
f 231/2/2 230/2/2 232/2/2
f 221/2/2 222/2/2 235/2/2
f 235/2/2 222/2/2 236/2/2
f 232/2/2 233/2/2 237/2/2
f 237/2/2 233/2/2 238/2/2
f 234/2/2 235/2/2 239/2/2
f 239/2/2 235/2/2 240/2/2
f 238/2/2 239/2/2 241/2/2
f 241/2/2 239/2/2 242/2/2
f 243/2/2 244/2/2 246/2/2
f 246/2/2 244/2/2 247/2/2
f 245/2/2 246/2/2 249/2/2
f 247/2/2 248/2/2 249/2/2
f 246/2/2 247/2/2 249/2/2
f 249/2/2 248/2/2 250/2/2
f 250/2/2 248/2/2 252/2/2
f 245/2/2 249/2/2 253/2/2
f 251/2/2 252/2/2 254/2/2
f 245/2/2 253/2/2 255/2/2
f 253/2/2 254/2/2 255/2/2
f 255/2/2 254/2/2 256/2/2
f 256/2/2 254/2/2 257/2/2
f 257/2/2 254/2/2 258/2/2
f 254/2/2 252/2/2 259/2/2
f 258/2/2 254/2/2 259/2/2
f 252/2/2 248/2/2 259/2/2
f 259/2/2 248/2/2 260/2/2
f 258/2/2 259/2/2 261/2/2
f 261/2/2 259/2/2 262/2/2
f 266/2/3 264/2/3 263/2/3
f 267/2/3 264/2/3 266/2/3
f 268/2/3 264/2/3 267/2/3
f 269/2/3 264/2/3 268/2/3
f 272/2/3 266/2/3 265/2/3
f 272/2/3 267/2/3 266/2/3
f 273/2/3 269/2/3 268/2/3
f 273/2/3 270/2/3 269/2/3
f 275/2/3 272/2/3 271/2/3
f 276/2/3 267/2/3 272/2/3
f 276/2/3 272/2/3 275/2/3
f 278/2/3 274/2/3 273/2/3
f 278/2/3 273/2/3 268/2/3
f 280/2/3 267/2/3 276/2/3
f 281/2/3 267/2/3 280/2/3
f 282/2/3 267/2/3 281/2/3
f 283/2/3 278/2/3 277/2/3
f 284/2/3 280/2/3 279/2/3
f 284/2/3 281/2/3 280/2/3
f 285/2/3 281/2/3 284/2/3
f 286/2/3 281/2/3 285/2/3
f 287/2/3 283/2/3 282/2/3
f 288/2/3 278/2/3 283/2/3
f 288/2/3 283/2/3 287/2/3
f 290/2/3 286/2/3 285/2/3
f 290/2/3 287/2/3 286/2/3
f 291/2/3 278/2/3 288/2/3
f 292/2/3 274/2/3 278/2/3
f 292/2/3 278/2/3 291/2/3
f 293/2/3 290/2/3 289/2/3
f 294/2/3 287/2/3 290/2/3
f 294/2/3 290/2/3 293/2/3
f 295/2/3 274/2/3 292/2/3
f 296/2/3 274/2/3 295/2/3
f 297/2/3 287/2/3 294/2/3
f 298/2/3 287/2/3 297/2/3
f 299/2/3 287/2/3 298/2/3
f 300/2/3 295/2/3 292/2/3
f 301/2/3 295/2/3 300/2/3
f 302/2/3 295/2/3 301/2/3
f 303/2/3 299/2/3 298/2/3
f 303/2/3 301/2/3 300/2/3
f 303/2/3 300/2/3 299/2/3
f 304/2/3 301/2/3 303/2/3
f 311/2/3 306/2/3 305/2/3
f 312/2/3 306/2/3 311/2/3
f 314/2/3 308/2/3 307/2/3
f 315/2/3 308/2/3 314/2/3
f 316/3/3 310/3/3 309/3/3
f 317/3/3 310/3/3 316/3/3
f 318/2/3 313/2/3 312/2/3
f 319/2/3 313/2/3 318/2/3
f 323/3/3 316/3/3 309/3/3
f 323/1/3 317/1/3 316/1/3
f 324/3/3 310/3/3 317/3/3
f 324/1/3 317/1/3 323/1/3
f 325/3/3 310/3/3 324/3/3
f 326/2/3 322/2/3 321/2/3
f 327/2/3 322/2/3 326/2/3
f 328/3/3 323/3/3 309/3/3
f 328/3/3 324/3/3 323/3/3
f 329/3/3 324/3/3 328/3/3
f 334/2/3 331/2/3 330/2/3
f 335/2/3 331/2/3 334/2/3
f 336/3/3 333/3/3 332/3/3
f 337/3/3 333/3/3 336/3/3
f 341/1/3 337/1/3 336/1/3
f 341/3/3 336/3/3 332/3/3
f 342/3/3 338/3/3 337/3/3
f 342/1/3 337/1/3 341/1/3
f 344/2/3 320/2/3 319/2/3
f 345/2/3 320/2/3 344/2/3
f 346/2/3 340/2/3 339/2/3
f 347/2/3 340/2/3 346/2/3
f 348/3/3 342/3/3 341/3/3
f 348/3/3 341/3/3 332/3/3
f 349/3/3 338/3/3 342/3/3
f 349/3/3 342/3/3 348/3/3
f 351/2/3 344/2/3 343/2/3
f 352/2/3 344/2/3 351/2/3
f 353/2/3 351/2/3 350/2/3
f 354/2/3 351/2/3 353/2/3
f 359/2/3 356/2/3 355/2/3
f 360/2/3 356/2/3 359/2/3
f 361/2/3 358/2/3 357/2/3
f 362/2/3 358/2/3 361/2/3
f 364/2/3 363/2/3 362/2/3
f 365/2/3 363/2/3 364/2/3
f 368/2/3 366/2/3 365/2/3
f 369/2/3 366/2/3 368/2/3
f 373/2/3 368/2/3 367/2/3
f 374/2/3 368/2/3 373/2/3
f 375/2/3 371/2/3 370/2/3
f 376/2/3 371/2/3 375/2/3
f 377/2/3 373/2/3 372/2/3
f 378/2/3 373/2/3 377/2/3
f 381/3/3 380/3/3 379/3/3
f 382/3/3 380/3/3 381/3/3
f 385/3/3 384/3/3 383/3/3
f 386/3/3 384/3/3 385/3/3
f 389/2/3 388/2/3 387/2/3
f 390/2/3 388/2/3 389/2/3
f 393/2/3 392/2/3 391/2/3
f 394/2/3 392/2/3 393/2/3
f 397/2/3 396/2/3 395/2/3
f 398/2/3 396/2/3 397/2/3
f 401/2/3 400/2/3 399/2/3
f 402/2/3 400/2/3 401/2/3
f 405/2/3 404/2/3 403/2/3
f 406/2/3 404/2/3 405/2/3
f 409/2/3 408/2/3 407/2/3
f 410/2/3 408/2/3 409/2/3
f 414/2/3 412/2/3 411/2/3
f 415/2/3 412/2/3 414/2/3
f 417/2/3 414/2/3 413/2/3
f 417/2/3 416/2/3 415/2/3
f 417/2/3 415/2/3 414/2/3
f 418/2/3 416/2/3 417/2/3
f 419/2/3 416/2/3 418/2/3
f 420/2/3 416/2/3 419/2/3
f 421/2/3 419/2/3 418/2/3
f 422/2/3 419/2/3 421/2/3
f 425/3/4 426/3/4 428/3/4
f 428/3/4 426/3/4 429/3/4
f 425/3/4 428/3/4 430/3/4
f 428/1/4 429/1/4 430/1/4
f 429/3/4 426/3/4 431/3/4
f 430/1/4 429/1/4 431/1/4
f 423/2/4 424/2/4 432/2/4
f 424/2/4 425/2/4 432/2/4
f 430/3/4 431/3/4 433/3/4
f 432/2/4 425/2/4 433/2/4
f 425/3/4 430/3/4 433/3/4
f 431/3/4 426/3/4 434/3/4
f 433/3/4 431/3/4 434/3/4
f 426/2/4 427/2/4 434/2/4
f 423/2/4 432/2/4 435/2/4
f 433/2/4 434/2/4 436/2/4
f 434/2/4 427/2/4 437/2/4
f 436/2/4 434/2/4 437/2/4
f 436/3/4 437/3/4 438/3/4
f 438/3/4 437/3/4 439/3/4
f 436/3/4 438/3/4 440/3/4
f 438/1/4 439/1/4 440/1/4
f 439/3/4 437/3/4 441/3/4
f 440/1/4 439/1/4 441/1/4
f 435/2/4 436/2/4 442/2/4
f 423/2/4 435/2/4 442/2/4
f 442/2/4 436/2/4 443/2/4
f 440/3/4 441/3/4 444/3/4
f 443/2/4 436/2/4 444/2/4
f 436/3/4 440/3/4 444/3/4
f 441/3/4 437/3/4 445/3/4
f 444/3/4 441/3/4 445/3/4
f 437/2/4 427/2/4 445/2/4
f 445/2/4 427/2/4 446/2/4
f 447/2/4 448/2/4 449/2/4
f 449/2/4 448/2/4 450/2/4
f 451/2/4 452/2/4 453/2/4
f 453/2/4 452/2/4 454/2/4
f 455/3/4 456/3/4 457/3/4
f 457/3/4 456/3/4 458/3/4
f 459/3/4 460/3/4 461/3/4
f 461/3/4 460/3/4 462/3/4
f 463/2/4 464/2/4 467/2/4
f 467/2/4 464/2/4 468/2/4
f 465/2/4 466/2/4 469/2/4
f 469/2/4 466/2/4 470/2/4
f 470/2/4 471/2/4 472/2/4
f 472/2/4 471/2/4 473/2/4
f 473/2/4 474/2/4 476/2/4
f 476/2/4 474/2/4 477/2/4
f 475/2/4 476/2/4 481/2/4
f 481/2/4 476/2/4 482/2/4
f 478/2/4 479/2/4 483/2/4
f 483/2/4 479/2/4 484/2/4
f 480/2/4 481/2/4 485/2/4
f 485/2/4 481/2/4 486/2/4
f 487/2/4 488/2/4 489/2/4
f 489/2/4 488/2/4 490/2/4
f 490/2/4 491/2/4 492/2/4
f 492/2/4 491/2/4 493/2/4
f 493/2/4 494/2/4 496/2/4
f 496/2/4 494/2/4 497/2/4
f 495/2/4 496/2/4 499/2/4
f 499/2/4 496/2/4 500/2/4
f 498/2/4 499/2/4 501/2/4
f 501/2/4 499/2/4 502/2/4
f 503/2/4 504/2/4 506/2/4
f 506/2/4 504/2/4 507/2/4
f 507/2/4 504/2/4 508/2/4
f 508/2/4 504/2/4 509/2/4
f 505/2/4 506/2/4 511/2/4
f 506/2/4 507/2/4 511/2/4
f 511/2/4 507/2/4 512/2/4
f 509/2/4 510/2/4 513/2/4
f 508/2/4 509/2/4 513/2/4
f 513/2/4 510/2/4 514/2/4
f 505/2/4 511/2/4 515/2/4
f 514/2/4 510/2/4 518/2/4
f 515/2/4 516/2/4 519/2/4
f 505/2/4 515/2/4 519/2/4
f 519/2/4 516/2/4 520/2/4
f 520/2/4 516/2/4 521/2/4
f 517/2/4 518/2/4 522/2/4
f 518/2/4 510/2/4 523/2/4
f 522/2/4 518/2/4 523/2/4
f 523/2/4 510/2/4 524/2/4
f 520/2/4 521/2/4 525/2/4
f 521/2/4 522/2/4 525/2/4
f 522/2/4 523/2/4 525/2/4
f 525/2/4 523/2/4 526/2/4
f 527/2/4 528/2/4 530/2/4
f 530/2/4 528/2/4 531/2/4
f 529/2/4 530/2/4 533/2/4
f 531/2/4 532/2/4 533/2/4
f 530/2/4 531/2/4 533/2/4
f 533/2/4 532/2/4 534/2/4
f 534/2/4 532/2/4 535/2/4
f 535/2/4 532/2/4 536/2/4
f 534/2/4 535/2/4 537/2/4
f 537/2/4 535/2/4 538/2/4
f 546/2/5 540/2/5 539/2/5
f 547/2/5 540/2/5 546/2/5
f 548/2/5 542/2/5 541/2/5
f 549/2/5 542/2/5 548/2/5
f 550/2/5 544/2/5 543/2/5
f 551/2/5 544/2/5 550/2/5
f 553/2/5 549/2/5 548/2/5
f 553/2/5 552/2/5 551/2/5
f 553/2/5 551/2/5 550/2/5
f 553/2/5 550/2/5 549/2/5
f 553/2/5 547/2/5 546/2/5
f 553/2/5 548/2/5 547/2/5
f 553/2/5 546/2/5 545/2/5
f 554/2/5 552/2/5 553/2/5
f 563/2/5 556/2/5 555/2/5
f 564/2/5 556/2/5 563/2/5
f 565/2/5 558/2/5 557/2/5
f 566/2/5 558/2/5 565/2/5
f 567/2/5 560/2/5 559/2/5
f 568/2/5 560/2/5 567/2/5
f 569/2/5 562/2/5 561/2/5
f 570/2/5 562/2/5 569/2/5
f 575/2/5 572/2/5 571/2/5
f 576/2/5 572/2/5 575/2/5
f 577/2/5 574/2/5 573/2/5
f 578/2/5 574/2/5 577/2/5
f 581/2/5 580/2/5 579/2/5
f 582/2/5 580/2/5 581/2/5
f 587/2/5 584/2/5 583/2/5
f 588/2/5 584/2/5 587/2/5
f 589/2/5 586/2/5 585/2/5
f 590/2/5 586/2/5 589/2/5
f 595/2/5 592/2/5 591/2/5
f 596/2/5 592/2/5 595/2/5
f 599/2/5 594/2/5 593/2/5
f 600/2/5 594/2/5 599/2/5
f 601/2/5 597/2/5 596/2/5
f 602/2/5 597/2/5 601/2/5
f 605/2/5 599/2/5 598/2/5
f 606/2/5 599/2/5 605/2/5
f 607/2/5 604/2/5 603/2/5
f 608/2/5 604/2/5 607/2/5
f 611/2/5 610/2/5 609/2/5
f 612/2/5 610/2/5 611/2/5
f 617/2/5 614/2/5 613/2/5
f 618/2/5 614/2/5 617/2/5
f 619/2/5 616/2/5 615/2/5
f 620/2/5 616/2/5 619/2/5
f 625/3/5 622/3/5 621/3/5
f 626/3/5 622/3/5 625/3/5
f 627/3/5 624/3/5 623/3/5
f 628/3/5 624/3/5 627/3/5
f 633/2/5 630/2/5 629/2/5
f 634/2/5 630/2/5 633/2/5
f 635/2/5 632/2/5 631/2/5
f 636/2/5 632/2/5 635/2/5
f 641/2/5 638/2/5 637/2/5
f 642/2/5 638/2/5 641/2/5
f 643/2/5 640/2/5 639/2/5
f 644/2/5 640/2/5 643/2/5
f 649/2/5 646/2/5 645/2/5
f 650/2/5 646/2/5 649/2/5
f 651/2/5 648/2/5 647/2/5
f 652/2/5 648/2/5 651/2/5
f 657/2/5 654/2/5 653/2/5
f 658/2/5 654/2/5 657/2/5
f 659/2/5 656/2/5 655/2/5
f 660/2/5 656/2/5 659/2/5
f 665/2/5 662/2/5 661/2/5
f 666/2/5 662/2/5 665/2/5
f 667/2/5 664/2/5 663/2/5
f 668/2/5 664/2/5 667/2/5
f 671/2/5 670/2/5 669/2/5
f 672/2/5 670/2/5 671/2/5
f 673/2/5 670/2/5 672/2/5
f 674/2/5 670/2/5 673/2/5
f 675/2/5 673/2/5 672/2/5
f 676/2/5 673/2/5 675/2/5
f 677/2/6 678/2/6 679/2/6
f 679/2/6 678/2/6 680/2/6
f 681/2/6 682/2/6 685/2/6
f 685/2/6 682/2/6 686/2/6
f 683/2/6 684/2/6 687/2/6
f 687/2/6 684/2/6 688/2/6
f 689/2/6 690/2/6 693/2/6
f 693/2/6 690/2/6 694/2/6
f 691/2/6 692/2/6 695/2/6
f 695/2/6 692/2/6 696/2/6
f 697/3/6 698/3/6 701/3/6
f 701/3/6 698/3/6 702/3/6
f 699/3/6 700/3/6 703/3/6
f 703/3/6 700/3/6 704/3/6
f 705/2/6 706/2/6 709/2/6
f 709/2/6 706/2/6 710/2/6
f 707/2/6 708/2/6 711/2/6
f 711/2/6 708/2/6 712/2/6
f 713/2/6 714/2/6 717/2/6
f 717/2/6 714/2/6 718/2/6
f 715/2/6 716/2/6 719/2/6
f 719/2/6 716/2/6 720/2/6
f 721/2/6 722/2/6 726/2/6
f 726/2/6 722/2/6 727/2/6
f 723/2/6 724/2/6 728/2/6
f 728/2/6 724/2/6 729/2/6
f 725/2/6 726/2/6 731/2/6
f 731/2/6 726/2/6 732/2/6
f 729/2/6 730/2/6 733/2/6
f 733/2/6 730/2/6 734/2/6
f 735/2/6 736/2/6 739/2/6
f 739/2/6 736/2/6 740/2/6
f 737/2/6 738/2/6 743/2/6
f 743/2/6 738/2/6 744/2/6
f 740/2/6 741/2/6 745/2/6
f 745/2/6 741/2/6 746/2/6
f 742/2/6 743/2/6 749/2/6
f 749/2/6 743/2/6 750/2/6
f 747/2/6 748/2/6 751/2/6
f 751/2/6 748/2/6 752/2/6
f 753/2/6 754/2/6 756/2/6
f 756/2/6 754/2/6 757/2/6
f 755/2/6 756/2/6 760/2/6
f 760/2/6 756/2/6 761/2/6
f 757/2/6 758/2/6 762/2/6
f 762/2/6 758/2/6 763/2/6
f 759/2/6 760/2/6 765/2/6
f 765/2/6 760/2/6 766/2/6
f 763/2/6 764/2/6 769/2/6
f 769/2/6 764/2/6 770/2/6
f 766/2/6 767/2/6 771/2/6
f 771/2/6 767/2/6 772/2/6
f 768/2/6 769/2/6 773/2/6
f 773/2/6 769/2/6 774/2/6
f 772/2/6 773/2/6 775/2/6
f 775/2/6 773/2/6 776/2/6
f 777/2/6 778/2/6 780/2/6
f 780/2/6 778/2/6 781/2/6
f 779/2/6 780/2/6 783/2/6
f 783/2/6 780/2/6 784/2/6
f 781/2/6 782/2/6 785/2/6
f 785/2/6 782/2/6 786/2/6
f 784/2/6 785/2/6 787/2/6
f 787/2/6 785/2/6 788/2/6
f 789/2/6 790/2/6 791/2/6
f 791/2/6 790/2/6 792/2/6
