# MagicaVoxel @ Ephtracy

# group
g Person_ShortHair

# material
mtllib Person_ShortHair.mtl
usemtl palette

# normals
vn -1 0 0
vn 1 0 0
vn 0 0 1
vn 0 0 -1
vn 0 -1 0
vn 0 1 0

# texcoords
vt 0.00195313 0.5

# verts
v -3 3 -0
v -3 3 -1
v -3 4 2
v -3 4 -0
v -3 5 2
v -3 5 -1
v -2 3 -1
v -2 3 -2
v -2 5 2
v -2 5 -1
v -2 5 -2
v -2 6 2
v -2 6 -1
v -1 2 -1
v -1 2 -2
v -1 3 -1
v -1 3 -2
v -1 5 -1
v -1 5 -2
v -1 6 -1
v -1 6 -2
v 2 3 -0
v 2 3 -1
v 2 4 2
v 2 4 -0
v 2 5 2
v 2 5 -1
v -2 3 -0
v -2 3 -1
v -2 4 2
v -2 4 -0
v -2 5 2
v -2 5 -1
v 1 2 -1
v 1 2 -2
v 1 3 -1
v 1 3 -2
v 1 5 -1
v 1 5 -2
v 1 6 -1
v 1 6 -2
v 2 3 -1
v 2 3 -2
v 2 5 2
v 2 5 -1
v 2 5 -2
v 2 6 2
v 2 6 -1
v 3 3 -0
v 3 3 -1
v 3 4 2
v 3 4 -0
v 3 5 2
v 3 5 -1
v -3 4 2
v -3 5 2
v -2 4 2
v -2 5 2
v -2 6 2
v 2 4 2
v 2 5 2
v 2 6 2
v 3 4 2
v 3 5 2
v -3 3 -0
v -3 4 -0
v -2 3 -0
v -2 4 -0
v 2 3 -0
v 2 4 -0
v 3 3 -0
v 3 4 -0
v -2 3 -1
v -2 5 -1
v -1 2 -1
v -1 3 -1
v 1 2 -1
v 1 3 -1
v 2 3 -1
v 2 5 -1
v -3 3 -1
v -3 5 -1
v -2 3 -1
v -2 5 -1
v -2 6 -1
v -1 5 -1
v -1 6 -1
v 1 5 -1
v 1 6 -1
v 2 3 -1
v 2 5 -1
v 2 6 -1
v 3 3 -1
v 3 5 -1
v -2 3 -2
v -2 5 -2
v -1 2 -2
v -1 3 -2
v -1 5 -2
v -1 6 -2
v 1 2 -2
v 1 3 -2
v 1 5 -2
v 1 6 -2
v 2 3 -2
v 2 5 -2
v -1 2 -1
v 1 2 -1
v -1 2 -2
v 1 2 -2
v -3 3 -0
v -2 3 -0
v 2 3 -0
v 3 3 -0
v -3 3 -1
v -2 3 -1
v -1 3 -1
v 1 3 -1
v 2 3 -1
v 3 3 -1
v -2 3 -2
v -1 3 -2
v 1 3 -2
v 2 3 -2
v -3 4 2
v -2 4 2
v 2 4 2
v 3 4 2
v -3 4 -0
v -2 4 -0
v 2 4 -0
v 3 4 -0
v -2 5 2
v 2 5 2
v -2 5 -1
v 2 5 -1
v -3 5 2
v -2 5 2
v 2 5 2
v 3 5 2
v -3 5 -1
v -2 5 -1
v -1 5 -1
v 1 5 -1
v 2 5 -1
v 3 5 -1
v -2 5 -2
v -1 5 -2
v 1 5 -2
v 2 5 -2
v -2 6 2
v 2 6 2
v -2 6 -1
v -1 6 -1
v 1 6 -1
v 2 6 -1
v -1 6 -2
v 1 6 -2

# faces
f 4/1/1 2/1/1 1/1/1
f 5/1/1 4/1/1 3/1/1
f 6/1/1 2/1/1 4/1/1
f 6/1/1 4/1/1 5/1/1
f 10/1/1 8/1/1 7/1/1
f 11/1/1 8/1/1 10/1/1
f 12/1/1 10/1/1 9/1/1
f 13/1/1 10/1/1 12/1/1
f 16/1/1 15/1/1 14/1/1
f 17/1/1 15/1/1 16/1/1
f 20/1/1 19/1/1 18/1/1
f 21/1/1 19/1/1 20/1/1
f 25/1/1 23/1/1 22/1/1
f 26/1/1 25/1/1 24/1/1
f 27/1/1 23/1/1 25/1/1
f 27/1/1 25/1/1 26/1/1
f 28/1/2 29/1/2 31/1/2
f 30/1/2 31/1/2 32/1/2
f 31/1/2 29/1/2 33/1/2
f 32/1/2 31/1/2 33/1/2
f 34/1/2 35/1/2 36/1/2
f 36/1/2 35/1/2 37/1/2
f 38/1/2 39/1/2 40/1/2
f 40/1/2 39/1/2 41/1/2
f 42/1/2 43/1/2 45/1/2
f 45/1/2 43/1/2 46/1/2
f 44/1/2 45/1/2 47/1/2
f 47/1/2 45/1/2 48/1/2
f 49/1/2 50/1/2 52/1/2
f 51/1/2 52/1/2 53/1/2
f 52/1/2 50/1/2 54/1/2
f 53/1/2 52/1/2 54/1/2
f 57/1/3 56/1/3 55/1/3
f 58/1/3 56/1/3 57/1/3
f 61/1/3 59/1/3 58/1/3
f 62/1/3 59/1/3 61/1/3
f 63/1/3 61/1/3 60/1/3
f 64/1/3 61/1/3 63/1/3
f 67/1/3 66/1/3 65/1/3
f 68/1/3 66/1/3 67/1/3
f 71/1/3 70/1/3 69/1/3
f 72/1/3 70/1/3 71/1/3
f 76/1/3 74/1/3 73/1/3
f 77/1/3 76/1/3 75/1/3
f 78/1/3 74/1/3 76/1/3
f 78/1/3 76/1/3 77/1/3
f 79/1/3 74/1/3 78/1/3
f 80/1/3 74/1/3 79/1/3
f 81/1/4 82/1/4 83/1/4
f 83/1/4 82/1/4 84/1/4
f 84/1/4 85/1/4 86/1/4
f 86/1/4 85/1/4 87/1/4
f 88/1/4 89/1/4 91/1/4
f 91/1/4 89/1/4 92/1/4
f 90/1/4 91/1/4 93/1/4
f 93/1/4 91/1/4 94/1/4
f 95/1/4 96/1/4 98/1/4
f 98/1/4 96/1/4 99/1/4
f 97/1/4 98/1/4 101/1/4
f 99/1/4 100/1/4 101/1/4
f 98/1/4 99/1/4 101/1/4
f 101/1/4 100/1/4 102/1/4
f 102/1/4 100/1/4 103/1/4
f 103/1/4 100/1/4 104/1/4
f 102/1/4 103/1/4 105/1/4
f 105/1/4 103/1/4 106/1/4
f 109/1/5 108/1/5 107/1/5
f 110/1/5 108/1/5 109/1/5
f 115/1/5 112/1/5 111/1/5
f 116/1/5 112/1/5 115/1/5
f 119/1/5 114/1/5 113/1/5
f 120/1/5 114/1/5 119/1/5
f 121/1/5 117/1/5 116/1/5
f 122/1/5 117/1/5 121/1/5
f 123/1/5 119/1/5 118/1/5
f 124/1/5 119/1/5 123/1/5
f 129/1/5 126/1/5 125/1/5
f 130/1/5 126/1/5 129/1/5
f 131/1/5 128/1/5 127/1/5
f 132/1/5 128/1/5 131/1/5
f 135/1/5 134/1/5 133/1/5
f 136/1/5 134/1/5 135/1/5
f 137/1/6 138/1/6 141/1/6
f 141/1/6 138/1/6 142/1/6
f 139/1/6 140/1/6 145/1/6
f 145/1/6 140/1/6 146/1/6
f 142/1/6 143/1/6 147/1/6
f 147/1/6 143/1/6 148/1/6
f 144/1/6 145/1/6 149/1/6
f 149/1/6 145/1/6 150/1/6
f 151/1/6 152/1/6 153/1/6
f 153/1/6 152/1/6 154/1/6
f 154/1/6 152/1/6 155/1/6
f 155/1/6 152/1/6 156/1/6
f 154/1/6 155/1/6 157/1/6
f 157/1/6 155/1/6 158/1/6
