# MagicaVoxel @ Ephtracy

# group
o 

# material
mtllib key.mtl
usemtl palette

# normals
vn -1 0 0
vn 1 0 0
vn 0 0 1
vn 0 0 -1
vn 0 -1 0
vn 0 1 0

# texcoords
vt 0.00195313 0.5
vt 0.962891 0.5
vt 0.966797 0.5

# verts
v -0.7 0.2 0.1
v -0.7 0.2 -0.1
v -0.7 0.4 0.1
v -0.7 0.4 -0.1
v -0.7 0.5 0.1
v -0.7 0.5 -0.1
v -0.7 0.6 0.1
v -0.7 0.6 -0.1
v -0.5 0.2 0.1
v -0.5 0.2 -0.1
v -0.5 0.3 0.1
v -0.5 0.3 -0.1
v 0 0.1 0.1
v 0 0.1 -0.1
v 0 0.3 0.1
v 0 0.3 -0.1
v 0 0.6 0.1
v 0 0.6 -0.1
v 0 0.7 0.1
v 0 0.7 -0.1
v 0 0.8 0.1
v 0 0.8 -0.1
v 0.1 0 0.1
v 0.1 0 -0.1
v 0.1 0.1 0.1
v 0.1 0.1 -0.1
v 0.1 0.8 0.1
v 0.1 0.8 -0.1
v 0.1 0.9 0.1
v 0.1 0.9 -0.1
v 0.5 0.3 0.1
v 0.5 0.3 -0.1
v 0.5 0.5 0.1
v 0.5 0.5 -0.1
v 0.5 0.6 0.1
v 0.5 0.6 -0.1
v -0.6 0.2 0.1
v -0.6 0.2 -0.1
v -0.6 0.3 0.1
v -0.6 0.3 -0.1
v -0.4 0.2 0.1
v -0.4 0.2 -0.1
v -0.4 0.3 0.1
v -0.4 0.3 -0.1
v 0.3 0.3 0.1
v 0.3 0.3 -0.1
v 0.3 0.5 0.1
v 0.3 0.5 -0.1
v 0.3 0.6 0.1
v 0.3 0.6 -0.1
v 0.7 0 0.1
v 0.7 0 -0.1
v 0.7 0.1 0.1
v 0.7 0.1 -0.1
v 0.7 0.8 0.1
v 0.7 0.8 -0.1
v 0.7 0.9 0.1
v 0.7 0.9 -0.1
v 0.8 0.1 0.1
v 0.8 0.1 -0.1
v 0.8 0.3 0.1
v 0.8 0.3 -0.1
v 0.8 0.5 0.1
v 0.8 0.5 -0.1
v 0.8 0.7 0.1
v 0.8 0.7 -0.1
v 0.8 0.8 0.1
v 0.8 0.8 -0.1
v -0.7 0.2 0.1
v -0.7 0.4 0.1
v -0.7 0.5 0.1
v -0.7 0.6 0.1
v -0.6 0.2 0.1
v -0.6 0.3 0.1
v -0.5 0.2 0.1
v -0.5 0.3 0.1
v -0.4 0.2 0.1
v -0.4 0.3 0.1
v -0.1 0.3 0.1
v -0.1 0.4 0.1
v -0.1 0.5 0.1
v 0 0.1 0.1
v 0 0.3 0.1
v 0 0.5 0.1
v 0 0.6 0.1
v 0 0.7 0.1
v 0 0.8 0.1
v 0.1 0 0.1
v 0.1 0.1 0.1
v 0.1 0.7 0.1
v 0.1 0.8 0.1
v 0.1 0.9 0.1
v 0.3 0.3 0.1
v 0.3 0.5 0.1
v 0.3 0.6 0.1
v 0.5 0.3 0.1
v 0.5 0.5 0.1
v 0.5 0.6 0.1
v 0.7 0 0.1
v 0.7 0.1 0.1
v 0.7 0.7 0.1
v 0.7 0.8 0.1
v 0.7 0.9 0.1
v 0.8 0.1 0.1
v 0.8 0.3 0.1
v 0.8 0.5 0.1
v 0.8 0.7 0.1
v 0.8 0.8 0.1
v -0.7 0.2 -0.1
v -0.7 0.4 -0.1
v -0.7 0.5 -0.1
v -0.7 0.6 -0.1
v -0.6 0.2 -0.1
v -0.6 0.3 -0.1
v -0.5 0.2 -0.1
v -0.5 0.3 -0.1
v -0.4 0.2 -0.1
v -0.4 0.3 -0.1
v -0.1 0.3 -0.1
v -0.1 0.4 -0.1
v -0.1 0.5 -0.1
v 0 0.1 -0.1
v 0 0.3 -0.1
v 0 0.5 -0.1
v 0 0.6 -0.1
v 0 0.7 -0.1
v 0 0.8 -0.1
v 0.1 0 -0.1
v 0.1 0.1 -0.1
v 0.1 0.7 -0.1
v 0.1 0.8 -0.1
v 0.1 0.9 -0.1
v 0.3 0.3 -0.1
v 0.3 0.5 -0.1
v 0.3 0.6 -0.1
v 0.5 0.3 -0.1
v 0.5 0.5 -0.1
v 0.5 0.6 -0.1
v 0.7 0 -0.1
v 0.7 0.1 -0.1
v 0.7 0.7 -0.1
v 0.7 0.8 -0.1
v 0.7 0.9 -0.1
v 0.8 0.1 -0.1
v 0.8 0.3 -0.1
v 0.8 0.5 -0.1
v 0.8 0.7 -0.1
v 0.8 0.8 -0.1
v 0.1 0 0.1
v 0.7 0 0.1
v 0.1 0 -0.1
v 0.7 0 -0.1
v 0 0.1 0.1
v 0.1 0.1 0.1
v 0.7 0.1 0.1
v 0.8 0.1 0.1
v 0 0.1 -0.1
v 0.1 0.1 -0.1
v 0.7 0.1 -0.1
v 0.8 0.1 -0.1
v -0.7 0.2 0.1
v -0.6 0.2 0.1
v -0.5 0.2 0.1
v -0.4 0.2 0.1
v -0.7 0.2 -0.1
v -0.6 0.2 -0.1
v -0.5 0.2 -0.1
v -0.4 0.2 -0.1
v -0.6 0.3 0.1
v -0.5 0.3 0.1
v -0.4 0.3 0.1
v -0.1 0.3 0.1
v 0 0.3 0.1
v -0.6 0.3 -0.1
v -0.5 0.3 -0.1
v -0.4 0.3 -0.1
v -0.1 0.3 -0.1
v 0 0.3 -0.1
v 0.3 0.6 0.1
v 0.5 0.6 0.1
v 0.3 0.6 -0.1
v 0.5 0.6 -0.1
v 0.3 0.3 0.1
v 0.5 0.3 0.1
v 0.3 0.3 -0.1
v 0.5 0.3 -0.1
v -0.7 0.6 0.1
v 0 0.6 0.1
v -0.7 0.6 -0.1
v 0 0.6 -0.1
v 0 0.8 0.1
v 0.1 0.8 0.1
v 0.7 0.8 0.1
v 0.8 0.8 0.1
v 0 0.8 -0.1
v 0.1 0.8 -0.1
v 0.7 0.8 -0.1
v 0.8 0.8 -0.1
v 0.1 0.9 0.1
v 0.7 0.9 0.1
v 0.1 0.9 -0.1
v 0.7 0.9 -0.1

# faces
f 3/1/1 2/1/1 1/1/1
f 4/1/1 2/1/1 3/1/1
f 5/2/1 4/2/1 3/2/1
f 6/2/1 4/2/1 5/2/1
f 7/3/1 6/3/1 5/3/1
f 8/3/1 6/3/1 7/3/1
f 11/1/1 10/1/1 9/1/1
f 12/1/1 10/1/1 11/1/1
f 15/2/1 14/2/1 13/2/1
f 16/2/1 14/2/1 15/2/1
f 19/2/1 18/2/1 17/2/1
f 20/2/1 18/2/1 19/2/1
f 21/3/1 20/3/1 19/3/1
f 22/3/1 20/3/1 21/3/1
f 25/2/1 24/2/1 23/2/1
f 26/2/1 24/2/1 25/2/1
f 29/3/1 28/3/1 27/3/1
f 30/3/1 28/3/1 29/3/1
f 33/1/1 32/1/1 31/1/1
f 34/1/1 32/1/1 33/1/1
f 35/2/1 34/2/1 33/2/1
f 36/2/1 34/2/1 35/2/1
f 37/1/2 38/1/2 39/1/2
f 39/1/2 38/1/2 40/1/2
f 41/1/2 42/1/2 43/1/2
f 43/1/2 42/1/2 44/1/2
f 45/1/2 46/1/2 47/1/2
f 47/1/2 46/1/2 48/1/2
f 47/2/2 48/2/2 49/2/2
f 49/2/2 48/2/2 50/2/2
f 51/2/2 52/2/2 53/2/2
f 53/2/2 52/2/2 54/2/2
f 55/3/2 56/3/2 57/3/2
f 57/3/2 56/3/2 58/3/2
f 59/2/2 60/2/2 61/2/2
f 61/2/2 60/2/2 62/2/2
f 61/1/2 62/1/2 63/1/2
f 63/1/2 62/1/2 64/1/2
f 63/2/2 64/2/2 65/2/2
f 65/2/2 64/2/2 66/2/2
f 65/3/2 66/3/2 67/3/2
f 67/3/2 66/3/2 68/3/2
f 73/1/3 70/1/3 69/1/3
f 74/1/3 70/1/3 73/1/3
f 76/1/3 70/1/3 74/1/3
f 77/1/3 76/1/3 75/1/3
f 78/1/3 70/1/3 76/1/3
f 78/1/3 76/1/3 77/1/3
f 79/1/3 70/1/3 78/1/3
f 80/2/3 71/2/3 70/2/3
f 80/1/3 70/1/3 79/1/3
f 81/3/3 72/3/3 71/3/3
f 81/2/3 71/2/3 80/2/3
f 83/3/3 80/3/3 79/3/3
f 83/3/3 81/3/3 80/3/3
f 84/3/3 72/3/3 81/3/3
f 84/3/3 81/3/3 83/3/3
f 85/3/3 72/3/3 84/3/3
f 89/2/3 83/2/3 82/2/3
f 90/3/3 87/3/3 86/3/3
f 90/2/3 85/2/3 84/2/3
f 90/2/3 86/2/3 85/2/3
f 91/3/3 87/3/3 90/3/3
f 93/2/3 89/2/3 88/2/3
f 93/1/3 84/1/3 83/1/3
f 93/2/3 83/2/3 89/2/3
f 94/2/3 91/2/3 90/2/3
f 94/1/3 84/1/3 93/1/3
f 94/2/3 90/2/3 84/2/3
f 95/2/3 91/2/3 94/2/3
f 96/2/3 93/2/3 88/2/3
f 98/2/3 91/2/3 95/2/3
f 99/2/3 96/2/3 88/2/3
f 100/2/3 96/2/3 99/2/3
f 101/2/3 98/2/3 97/2/3
f 101/2/3 91/2/3 98/2/3
f 102/3/3 92/3/3 91/3/3
f 102/2/3 91/2/3 101/2/3
f 103/3/3 92/3/3 102/3/3
f 104/2/3 96/2/3 100/2/3
f 105/1/3 97/1/3 96/1/3
f 105/2/3 96/2/3 104/2/3
f 106/2/3 101/2/3 97/2/3
f 106/1/3 97/1/3 105/1/3
f 107/3/3 102/3/3 101/3/3
f 107/2/3 101/2/3 106/2/3
f 108/3/3 102/3/3 107/3/3
f 109/1/4 110/1/4 113/1/4
f 113/1/4 110/1/4 114/1/4
f 114/1/4 110/1/4 116/1/4
f 115/1/4 116/1/4 117/1/4
f 116/1/4 110/1/4 118/1/4
f 117/1/4 116/1/4 118/1/4
f 118/1/4 110/1/4 119/1/4
f 110/2/4 111/2/4 120/2/4
f 119/1/4 110/1/4 120/1/4
f 111/3/4 112/3/4 121/3/4
f 120/2/4 111/2/4 121/2/4
f 119/3/4 120/3/4 123/3/4
f 120/3/4 121/3/4 123/3/4
f 121/3/4 112/3/4 124/3/4
f 123/3/4 121/3/4 124/3/4
f 124/3/4 112/3/4 125/3/4
f 122/2/4 123/2/4 129/2/4
f 126/3/4 127/3/4 130/3/4
f 124/2/4 125/2/4 130/2/4
f 125/2/4 126/2/4 130/2/4
f 130/3/4 127/3/4 131/3/4
f 128/2/4 129/2/4 133/2/4
f 123/1/4 124/1/4 133/1/4
f 129/2/4 123/2/4 133/2/4
f 130/2/4 131/2/4 134/2/4
f 133/1/4 124/1/4 134/1/4
f 124/2/4 130/2/4 134/2/4
f 134/2/4 131/2/4 135/2/4
f 128/2/4 133/2/4 136/2/4
f 135/2/4 131/2/4 138/2/4
f 128/2/4 136/2/4 139/2/4
f 139/2/4 136/2/4 140/2/4
f 137/2/4 138/2/4 141/2/4
f 138/2/4 131/2/4 141/2/4
f 131/3/4 132/3/4 142/3/4
f 141/2/4 131/2/4 142/2/4
f 142/3/4 132/3/4 143/3/4
f 140/2/4 136/2/4 144/2/4
f 136/1/4 137/1/4 145/1/4
f 144/2/4 136/2/4 145/2/4
f 137/2/4 141/2/4 146/2/4
f 145/1/4 137/1/4 146/1/4
f 141/3/4 142/3/4 147/3/4
f 146/2/4 141/2/4 147/2/4
f 147/3/4 142/3/4 148/3/4
f 151/2/5 150/2/5 149/2/5
f 152/2/5 150/2/5 151/2/5
f 157/2/5 154/2/5 153/2/5
f 158/2/5 154/2/5 157/2/5
f 159/2/5 156/2/5 155/2/5
f 160/2/5 156/2/5 159/2/5
f 165/1/5 162/1/5 161/1/5
f 166/1/5 162/1/5 165/1/5
f 167/1/5 164/1/5 163/1/5
f 168/1/5 164/1/5 167/1/5
f 174/1/5 170/1/5 169/1/5
f 175/1/5 170/1/5 174/1/5
f 176/1/5 172/1/5 171/1/5
f 177/3/5 173/3/5 172/3/5
f 177/1/5 172/1/5 176/1/5
f 178/3/5 173/3/5 177/3/5
f 181/2/5 180/2/5 179/2/5
f 182/2/5 180/2/5 181/2/5
f 183/2/6 184/2/6 185/2/6
f 185/2/6 184/2/6 186/2/6
f 187/3/6 188/3/6 189/3/6
f 189/3/6 188/3/6 190/3/6
f 191/3/6 192/3/6 195/3/6
f 195/3/6 192/3/6 196/3/6
f 193/3/6 194/3/6 197/3/6
f 197/3/6 194/3/6 198/3/6
f 199/3/6 200/3/6 201/3/6
f 201/3/6 200/3/6 202/3/6
