# MagicaVoxel @ Ephtracy

# group
g Cthulhu_Hand

# material
mtllib Cthulhu_Hand.mtl
usemtl palette

# normals
vn -1 0 0
vn 1 0 0
vn 0 0 1
vn 0 0 -1
vn 0 -1 0
vn 0 1 0

# texcoords
vt 0.154297 0.5
vt 0.482422 0.5

# verts
v -1.5 3 0.5
v -1.5 3 -2.5
v -1.5 5 0.5
v -1.5 5 -2.5
v -0.5 2 0.5
v -0.5 2 -2.5
v -0.5 3 0.5
v -0.5 3 -2.5
v 0.5 0 0.5
v 0.5 0 -0.5
v 0.5 0 -1.5
v 0.5 0 -2.5
v 0.5 1 0.5
v 0.5 1 -0.5
v 0.5 1 -1.5
v 0.5 1 -2.5
v 0.5 2 0.5
v 0.5 2 -0.5
v 0.5 2 -1.5
v 0.5 2 -2.5
v 0.5 4 2.5
v 0.5 4 1.5
v 0.5 4 0.5
v 0.5 5 2.5
v 0.5 5 1.5
v 0.5 5 0.5
v 1.5 0 0.5
v 1.5 0 -0.5
v 1.5 0 -1.5
v 1.5 0 -2.5
v 1.5 1 0.5
v 1.5 1 -0.5
v 1.5 1 -1.5
v 1.5 1 -2.5
v 1.5 2 -0.5
v 1.5 2 -1.5
v 1.5 4 2.5
v 1.5 4 1.5
v 1.5 4 0.5
v 1.5 5 2.5
v 1.5 5 1.5
v 1.5 5 -2.5
v 0.5 4 2.5
v 0.5 5 2.5
v 1.5 4 2.5
v 1.5 5 2.5
v -1.5 3 0.5
v -1.5 5 0.5
v -0.5 2 0.5
v -0.5 3 0.5
v 0.5 0 0.5
v 0.5 1 0.5
v 0.5 2 0.5
v 0.5 4 0.5
v 0.5 5 0.5
v 1.5 0 0.5
v 1.5 1 0.5
v 1.5 4 0.5
v 0.5 0 -1.5
v 0.5 1 -1.5
v 0.5 2 -1.5
v 1.5 0 -1.5
v 1.5 1 -1.5
v 1.5 2 -1.5
v 0.5 0 -0.5
v 0.5 1 -0.5
v 0.5 2 -0.5
v 1.5 0 -0.5
v 1.5 1 -0.5
v 1.5 2 -0.5
v -1.5 3 -2.5
v -1.5 5 -2.5
v -0.5 2 -2.5
v -0.5 3 -2.5
v 0.5 0 -2.5
v 0.5 1 -2.5
v 0.5 2 -2.5
v 1.5 0 -2.5
v 1.5 1 -2.5
v 1.5 5 -2.5
v 0.5 0 0.5
v 1.5 0 0.5
v 0.5 0 -0.5
v 1.5 0 -0.5
v 0.5 0 -1.5
v 1.5 0 -1.5
v 0.5 0 -2.5
v 1.5 0 -2.5
v -0.5 2 0.5
v 0.5 2 0.5
v 0.5 2 -0.5
v 1.5 2 -0.5
v 0.5 2 -1.5
v 1.5 2 -1.5
v -0.5 2 -2.5
v 0.5 2 -2.5
v -1.5 3 0.5
v -0.5 3 0.5
v -1.5 3 -2.5
v -0.5 3 -2.5
v 0.5 4 2.5
v 1.5 4 2.5
v 0.5 4 1.5
v 1.5 4 1.5
v 0.5 4 0.5
v 1.5 4 0.5
v 0.5 5 2.5
v 1.5 5 2.5
v 0.5 5 1.5
v 1.5 5 1.5
v -1.5 5 0.5
v 0.5 5 0.5
v -1.5 5 -2.5
v 1.5 5 -2.5

# faces
f 3/2/1 2/2/1 1/2/1
f 4/2/1 2/2/1 3/2/1
f 7/2/1 6/2/1 5/2/1
f 8/2/1 6/2/1 7/2/1
f 13/1/1 10/1/1 9/1/1
f 14/1/1 10/1/1 13/1/1
f 15/1/1 12/1/1 11/1/1
f 16/1/1 12/1/1 15/1/1
f 17/2/1 14/2/1 13/2/1
f 18/2/1 14/2/1 17/2/1
f 19/2/1 16/2/1 15/2/1
f 20/2/1 16/2/1 19/2/1
f 24/1/1 22/1/1 21/1/1
f 25/2/1 23/2/1 22/2/1
f 25/1/1 22/1/1 24/1/1
f 26/2/1 23/2/1 25/2/1
f 27/1/2 28/1/2 31/1/2
f 31/1/2 28/1/2 32/1/2
f 29/1/2 30/1/2 33/1/2
f 33/1/2 30/1/2 34/1/2
f 31/2/2 32/2/2 35/2/2
f 33/2/2 34/2/2 36/2/2
f 31/2/2 35/2/2 39/2/2
f 35/2/2 36/2/2 39/2/2
f 37/1/2 38/1/2 40/1/2
f 38/2/2 39/2/2 41/2/2
f 40/1/2 38/1/2 41/1/2
f 36/2/2 34/2/2 42/2/2
f 41/2/2 39/2/2 42/2/2
f 39/2/2 36/2/2 42/2/2
f 45/1/3 44/1/3 43/1/3
f 46/1/3 44/1/3 45/1/3
f 50/2/3 48/2/3 47/2/3
f 53/2/3 50/2/3 49/2/3
f 54/2/3 48/2/3 50/2/3
f 54/2/3 50/2/3 53/2/3
f 55/2/3 48/2/3 54/2/3
f 56/1/3 52/1/3 51/1/3
f 57/2/3 53/2/3 52/2/3
f 57/1/3 52/1/3 56/1/3
f 57/2/3 54/2/3 53/2/3
f 58/2/3 54/2/3 57/2/3
f 62/1/3 60/1/3 59/1/3
f 63/2/3 61/2/3 60/2/3
f 63/1/3 60/1/3 62/1/3
f 64/2/3 61/2/3 63/2/3
f 65/1/4 66/1/4 68/1/4
f 66/2/4 67/2/4 69/2/4
f 68/1/4 66/1/4 69/1/4
f 69/2/4 67/2/4 70/2/4
f 71/2/4 72/2/4 74/2/4
f 73/2/4 74/2/4 77/2/4
f 75/1/4 76/1/4 78/1/4
f 76/2/4 77/2/4 79/2/4
f 78/1/4 76/1/4 79/1/4
f 74/2/4 72/2/4 80/2/4
f 79/2/4 77/2/4 80/2/4
f 77/2/4 74/2/4 80/2/4
f 83/1/5 82/1/5 81/1/5
f 84/1/5 82/1/5 83/1/5
f 87/1/5 86/1/5 85/1/5
f 88/1/5 86/1/5 87/1/5
f 91/2/5 90/2/5 89/2/5
f 93/2/5 91/2/5 89/2/5
f 93/2/5 92/2/5 91/2/5
f 94/2/5 92/2/5 93/2/5
f 95/2/5 93/2/5 89/2/5
f 96/2/5 93/2/5 95/2/5
f 99/2/5 98/2/5 97/2/5
f 100/2/5 98/2/5 99/2/5
f 103/1/5 102/1/5 101/1/5
f 104/1/5 102/1/5 103/1/5
f 105/2/5 104/2/5 103/2/5
f 106/2/5 104/2/5 105/2/5
f 107/1/6 108/1/6 109/1/6
f 109/1/6 108/1/6 110/1/6
f 109/2/6 110/2/6 112/2/6
f 111/2/6 112/2/6 113/2/6
f 112/2/6 110/2/6 114/2/6
f 113/2/6 112/2/6 114/2/6
