# MagicaVoxel @ Ephtracy

# group
g Cthulhu_Foot

# material
mtllib Cthulhu_Foot.mtl
usemtl palette

# normals
vn -1 0 0
vn 1 0 0
vn 0 0 1
vn 0 0 -1
vn 0 -1 0
vn 0 1 0

# texcoords
vt 0.154297 0.5
vt 0.482422 0.5
vt 0.958984 0.5

# verts
v -2.5 0 2.5
v -2.5 0 1.5
v -2.5 0 -0.5
v -2.5 1 2.5
v -2.5 1 1.5
v -2.5 1 0.5
v -2.5 1 -0.5
v -2.5 1 -1.5
v -2.5 2 0.5
v -2.5 2 -1.5
v -1.5 0 -0.5
v -1.5 0 -1.5
v -1.5 1 1.5
v -1.5 1 0.5
v -1.5 1 -0.5
v -1.5 1 -1.5
v -1.5 1 -2.5
v -1.5 2 1.5
v -1.5 2 0.5
v -1.5 2 -1.5
v -1.5 2 -2.5
v -1.5 3 0.5
v -1.5 3 -1.5
v -0.5 0 2.5
v -0.5 0 1.5
v -0.5 0 -1.5
v -0.5 0 -2.5
v -0.5 1 2.5
v -0.5 1 1.5
v -0.5 1 -1.5
v -0.5 1 -2.5
v -0.5 2 1.5
v -0.5 2 0.5
v -0.5 2 -1.5
v -0.5 2 -2.5
v -0.5 3 1.5
v -0.5 3 0.5
v -0.5 3 -1.5
v -0.5 3 -2.5
v 1.5 0 2.5
v 1.5 0 1.5
v 1.5 1 2.5
v 1.5 1 1.5
v -1.5 0 2.5
v -1.5 0 1.5
v -1.5 1 2.5
v -1.5 1 1.5
v 0.5 0 2.5
v 0.5 0 1.5
v 0.5 0 -1.5
v 0.5 0 -2.5
v 0.5 1 2.5
v 0.5 1 1.5
v 0.5 1 -1.5
v 0.5 1 -2.5
v 0.5 2 1.5
v 0.5 2 0.5
v 0.5 2 -1.5
v 0.5 2 -2.5
v 0.5 3 1.5
v 0.5 3 0.5
v 0.5 3 -1.5
v 0.5 3 -2.5
v 1.5 0 -0.5
v 1.5 0 -1.5
v 1.5 1 1.5
v 1.5 1 0.5
v 1.5 1 -0.5
v 1.5 1 -1.5
v 1.5 1 -2.5
v 1.5 2 1.5
v 1.5 2 0.5
v 1.5 2 -1.5
v 1.5 2 -2.5
v 1.5 3 0.5
v 1.5 3 -1.5
v 2.5 0 2.5
v 2.5 0 1.5
v 2.5 0 -0.5
v 2.5 1 2.5
v 2.5 1 1.5
v 2.5 1 0.5
v 2.5 1 -0.5
v 2.5 1 -1.5
v 2.5 2 0.5
v 2.5 2 -1.5
v -2.5 0 2.5
v -2.5 1 2.5
v -1.5 0 2.5
v -1.5 1 2.5
v -0.5 0 2.5
v -0.5 1 2.5
v 0.5 0 2.5
v 0.5 1 2.5
v 1.5 0 2.5
v 1.5 1 2.5
v 2.5 0 2.5
v 2.5 1 2.5
v -1.5 0 1.5
v -1.5 1 1.5
v -1.5 2 1.5
v -0.5 0 1.5
v -0.5 1 1.5
v -0.5 2 1.5
v -0.5 3 1.5
v 0.5 0 1.5
v 0.5 1 1.5
v 0.5 2 1.5
v 0.5 3 1.5
v 1.5 0 1.5
v 1.5 1 1.5
v 1.5 2 1.5
v -2.5 1 0.5
v -2.5 2 0.5
v -1.5 1 0.5
v -1.5 2 0.5
v -1.5 3 0.5
v -0.5 2 0.5
v -0.5 3 0.5
v 0.5 2 0.5
v 0.5 3 0.5
v 1.5 1 0.5
v 1.5 2 0.5
v 1.5 3 0.5
v 2.5 1 0.5
v 2.5 2 0.5
v -2.5 0 -0.5
v -2.5 1 -0.5
v -1.5 0 -0.5
v -1.5 1 -0.5
v 1.5 0 -0.5
v 1.5 1 -0.5
v 2.5 0 -0.5
v 2.5 1 -0.5
v -2.5 1 -1.5
v -2.5 2 -1.5
v -1.5 0 -1.5
v -1.5 1 -1.5
v -1.5 2 -1.5
v -1.5 3 -1.5
v -0.5 0 -1.5
v -0.5 1 -1.5
v -0.5 2 -1.5
v -0.5 3 -1.5
v 0.5 0 -1.5
v 0.5 1 -1.5
v 0.5 2 -1.5
v 0.5 3 -1.5
v 1.5 0 -1.5
v 1.5 1 -1.5
v 1.5 2 -1.5
v 1.5 3 -1.5
v 2.5 1 -1.5
v 2.5 2 -1.5
v -1.5 1 -2.5
v -1.5 2 -2.5
v -0.5 0 -2.5
v -0.5 1 -2.5
v -0.5 2 -2.5
v -0.5 3 -2.5
v 0.5 0 -2.5
v 0.5 1 -2.5
v 0.5 2 -2.5
v 0.5 3 -2.5
v 1.5 1 -2.5
v 1.5 2 -2.5
v -2.5 0 2.5
v -1.5 0 2.5
v -0.5 0 2.5
v 0.5 0 2.5
v 1.5 0 2.5
v 2.5 0 2.5
v -2.5 0 1.5
v -1.5 0 1.5
v -0.5 0 1.5
v 0.5 0 1.5
v 1.5 0 1.5
v 2.5 0 1.5
v -0.5 0 0.5
v 0.5 0 0.5
v -2.5 0 -0.5
v -1.5 0 -0.5
v 1.5 0 -0.5
v 2.5 0 -0.5
v -1.5 0 -1.5
v -0.5 0 -1.5
v 0.5 0 -1.5
v 1.5 0 -1.5
v -0.5 0 -2.5
v 0.5 0 -2.5
v -2.5 1 -0.5
v -1.5 1 -0.5
v 1.5 1 -0.5
v 2.5 1 -0.5
v -2.5 1 -1.5
v -1.5 1 -1.5
v -0.5 1 -1.5
v 0.5 1 -1.5
v 1.5 1 -1.5
v 2.5 1 -1.5
v -1.5 1 -2.5
v -0.5 1 -2.5
v 0.5 1 -2.5
v 1.5 1 -2.5
v -2.5 1 2.5
v -1.5 1 2.5
v -0.5 1 2.5
v 0.5 1 2.5
v 1.5 1 2.5
v 2.5 1 2.5
v -2.5 1 1.5
v -1.5 1 1.5
v -0.5 1 1.5
v 0.5 1 1.5
v 1.5 1 1.5
v 2.5 1 1.5
v -2.5 1 0.5
v -1.5 1 0.5
v 1.5 1 0.5
v 2.5 1 0.5
v -1.5 2 1.5
v -0.5 2 1.5
v 0.5 2 1.5
v 1.5 2 1.5
v -2.5 2 0.5
v -1.5 2 0.5
v -0.5 2 0.5
v 0.5 2 0.5
v 1.5 2 0.5
v 2.5 2 0.5
v -2.5 2 -1.5
v -1.5 2 -1.5
v -0.5 2 -1.5
v 0.5 2 -1.5
v 1.5 2 -1.5
v 2.5 2 -1.5
v -1.5 2 -2.5
v -0.5 2 -2.5
v 0.5 2 -2.5
v 1.5 2 -2.5
v -0.5 3 1.5
v 0.5 3 1.5
v -1.5 3 0.5
v -0.5 3 0.5
v 0.5 3 0.5
v 1.5 3 0.5
v -1.5 3 -1.5
v -0.5 3 -1.5
v 0.5 3 -1.5
v 1.5 3 -1.5
v -0.5 3 -2.5
v 0.5 3 -2.5

# faces
f 4/1/1 2/1/1 1/1/1
f 5/2/1 3/2/1 2/2/1
f 5/1/1 2/1/1 4/1/1
f 6/2/1 3/2/1 5/2/1
f 7/2/1 3/2/1 6/2/1
f 9/2/1 8/2/1 7/2/1
f 9/2/1 7/2/1 6/2/1
f 10/2/1 8/2/1 9/2/1
f 15/2/1 12/2/1 11/2/1
f 16/2/1 12/2/1 15/2/1
f 18/2/1 14/2/1 13/2/1
f 19/2/1 14/2/1 18/2/1
f 20/2/1 17/2/1 16/2/1
f 21/2/1 17/2/1 20/2/1
f 22/2/1 20/2/1 19/2/1
f 23/2/1 20/2/1 22/2/1
f 28/1/1 25/1/1 24/1/1
f 29/1/1 25/1/1 28/1/1
f 30/2/1 27/2/1 26/2/1
f 31/2/1 27/2/1 30/2/1
f 36/2/1 33/2/1 32/2/1
f 37/2/1 33/2/1 36/2/1
f 38/2/1 35/2/1 34/2/1
f 39/2/1 35/2/1 38/2/1
f 42/1/1 41/1/1 40/1/1
f 43/1/1 41/1/1 42/1/1
f 44/1/2 45/1/2 46/1/2
f 46/1/2 45/1/2 47/1/2
f 48/1/2 49/1/2 52/1/2
f 52/1/2 49/1/2 53/1/2
f 50/2/2 51/2/2 54/2/2
f 54/2/2 51/2/2 55/2/2
f 56/2/2 57/2/2 60/2/2
f 60/2/2 57/2/2 61/2/2
f 58/2/2 59/2/2 62/2/2
f 62/2/2 59/2/2 63/2/2
f 64/2/2 65/2/2 68/2/2
f 68/2/2 65/2/2 69/2/2
f 66/2/2 67/2/2 71/2/2
f 71/2/2 67/2/2 72/2/2
f 69/2/2 70/2/2 73/2/2
f 73/2/2 70/2/2 74/2/2
f 72/2/2 73/2/2 75/2/2
f 75/2/2 73/2/2 76/2/2
f 77/1/2 78/1/2 80/1/2
f 78/2/2 79/2/2 81/2/2
f 80/1/2 78/1/2 81/1/2
f 81/2/2 79/2/2 82/2/2
f 82/2/2 79/2/2 83/2/2
f 83/2/2 84/2/2 85/2/2
f 82/2/2 83/2/2 85/2/2
f 85/2/2 84/2/2 86/2/2
f 89/1/3 88/1/3 87/1/3
f 90/1/3 88/1/3 89/1/3
f 93/1/3 92/1/3 91/1/3
f 94/1/3 92/1/3 93/1/3
f 97/1/3 96/1/3 95/1/3
f 98/1/3 96/1/3 97/1/3
f 102/2/3 100/2/3 99/2/3
f 102/2/3 101/2/3 100/2/3
f 103/2/3 101/2/3 102/2/3
f 104/2/3 101/2/3 103/2/3
f 107/2/3 105/2/3 104/2/3
f 107/2/3 104/2/3 103/2/3
f 108/2/3 105/2/3 107/2/3
f 109/2/3 105/2/3 108/2/3
f 110/2/3 107/2/3 106/2/3
f 110/2/3 108/2/3 107/2/3
f 111/2/3 108/2/3 110/2/3
f 112/2/3 108/2/3 111/2/3
f 115/2/3 114/2/3 113/2/3
f 116/2/3 114/2/3 115/2/3
f 118/2/3 117/2/3 116/2/3
f 119/2/3 117/2/3 118/2/3
f 123/2/3 121/2/3 120/2/3
f 124/2/3 121/2/3 123/2/3
f 125/2/3 123/2/3 122/2/3
f 126/2/3 123/2/3 125/2/3
f 127/2/4 128/2/4 129/2/4
f 129/2/4 128/2/4 130/2/4
f 131/2/4 132/2/4 133/2/4
f 133/2/4 132/2/4 134/2/4
f 135/2/4 136/2/4 138/2/4
f 138/2/4 136/2/4 139/2/4
f 137/2/4 138/2/4 141/2/4
f 141/2/4 138/2/4 142/2/4
f 139/2/4 140/2/4 143/2/4
f 143/2/4 140/2/4 144/2/4
f 145/2/4 146/2/4 149/2/4
f 149/2/4 146/2/4 150/2/4
f 147/2/4 148/2/4 151/2/4
f 151/2/4 148/2/4 152/2/4
f 150/2/4 151/2/4 153/2/4
f 153/2/4 151/2/4 154/2/4
f 155/2/4 156/2/4 158/2/4
f 158/2/4 156/2/4 159/2/4
f 157/2/4 158/2/4 161/2/4
f 159/2/4 160/2/4 161/2/4
f 158/2/4 159/2/4 161/2/4
f 161/2/4 160/2/4 162/2/4
f 162/2/4 160/2/4 163/2/4
f 163/2/4 160/2/4 164/2/4
f 162/2/4 163/2/4 165/2/4
f 165/2/4 163/2/4 166/2/4
f 173/1/5 168/1/5 167/1/5
f 174/1/5 168/1/5 173/1/5
f 175/1/5 170/1/5 169/1/5
f 176/1/5 170/1/5 175/1/5
f 177/1/5 172/1/5 171/1/5
f 178/1/5 172/1/5 177/1/5
f 179/3/5 176/3/5 175/3/5
f 179/2/5 174/2/5 173/2/5
f 179/2/5 175/2/5 174/2/5
f 180/2/5 178/2/5 177/2/5
f 180/3/5 176/3/5 179/3/5
f 180/2/5 177/2/5 176/2/5
f 181/2/5 179/2/5 173/2/5
f 181/2/5 180/2/5 179/2/5
f 182/2/5 180/2/5 181/2/5
f 183/2/5 178/2/5 180/2/5
f 183/2/5 180/2/5 182/2/5
f 184/2/5 178/2/5 183/2/5
f 185/2/5 183/2/5 182/2/5
f 186/2/5 183/2/5 185/2/5
f 187/2/5 183/2/5 186/2/5
f 188/2/5 183/2/5 187/2/5
f 189/2/5 187/2/5 186/2/5
f 190/2/5 187/2/5 189/2/5
f 195/2/5 192/2/5 191/2/5
f 196/2/5 192/2/5 195/2/5
f 199/2/5 194/2/5 193/2/5
f 200/2/5 194/2/5 199/2/5
f 201/2/5 197/2/5 196/2/5
f 202/2/5 197/2/5 201/2/5
f 203/2/5 199/2/5 198/2/5
f 204/2/5 199/2/5 203/2/5
f 205/1/6 206/1/6 211/1/6
f 211/1/6 206/1/6 212/1/6
f 207/1/6 208/1/6 213/1/6
f 213/1/6 208/1/6 214/1/6
f 209/1/6 210/1/6 215/1/6
f 215/1/6 210/1/6 216/1/6
f 211/2/6 212/2/6 217/2/6
f 217/2/6 212/2/6 218/2/6
f 215/2/6 216/2/6 219/2/6
f 219/2/6 216/2/6 220/2/6
f 221/2/6 222/2/6 226/2/6
f 226/2/6 222/2/6 227/2/6
f 223/2/6 224/2/6 228/2/6
f 228/2/6 224/2/6 229/2/6
f 225/2/6 226/2/6 231/2/6
f 231/2/6 226/2/6 232/2/6
f 229/2/6 230/2/6 235/2/6
f 235/2/6 230/2/6 236/2/6
f 232/2/6 233/2/6 237/2/6
f 237/2/6 233/2/6 238/2/6
f 234/2/6 235/2/6 239/2/6
f 239/2/6 235/2/6 240/2/6
f 241/2/6 242/2/6 244/2/6
f 244/2/6 242/2/6 245/2/6
f 243/2/6 244/2/6 247/2/6
f 245/2/6 246/2/6 247/2/6
f 244/2/6 245/2/6 247/2/6
f 247/2/6 246/2/6 248/2/6
f 248/2/6 246/2/6 249/2/6
f 249/2/6 246/2/6 250/2/6
f 248/2/6 249/2/6 251/2/6
f 251/2/6 249/2/6 252/2/6
