# MagicaVoxel @ Ephtracy

# group
g Cthulhu_Body

# material
mtllib Cthulhu_Body.mtl
usemtl palette

# normals
vn -1 0 0
vn 1 0 0
vn 0 0 1
vn 0 0 -1
vn 0 -1 0
vn 0 1 0

# texcoords
vt 0.150391 0.5
vt 0.869141 0.5

# verts
v -3 0 2.5
v -3 0 -2.5
v -3 5 2.5
v -3 5 -2.5
v -2 0 3.5
v -2 0 2.5
v -2 0 -2.5
v -2 0 -3.5
v -2 5 3.5
v -2 5 2.5
v -2 5 -2.5
v -2 5 -3.5
v 2 1 2.5
v 2 1 -2.5
v 2 4 2.5
v 2 4 -2.5
v -2 1 2.5
v -2 1 -2.5
v -2 4 2.5
v -2 4 -2.5
v 2 0 3.5
v 2 0 2.5
v 2 0 -2.5
v 2 0 -3.5
v 2 5 3.5
v 2 5 2.5
v 2 5 -2.5
v 2 5 -3.5
v 3 0 2.5
v 3 0 -2.5
v 3 5 2.5
v 3 5 -2.5
v -2 0 3.5
v -2 5 3.5
v 2 0 3.5
v 2 5 3.5
v -3 0 2.5
v -3 5 2.5
v -2 0 2.5
v -2 5 2.5
v 2 0 2.5
v 2 5 2.5
v 3 0 2.5
v 3 5 2.5
v -2 1 -2.5
v -2 4 -2.5
v 2 1 -2.5
v 2 4 -2.5
v -2 1 2.5
v -2 4 2.5
v 2 1 2.5
v 2 4 2.5
v -3 0 -2.5
v -3 5 -2.5
v -2 0 -2.5
v -2 5 -2.5
v 2 0 -2.5
v 2 5 -2.5
v 3 0 -2.5
v 3 5 -2.5
v -2 0 -3.5
v -2 5 -3.5
v 2 0 -3.5
v 2 5 -3.5
v -2 0 3.5
v 2 0 3.5
v -3 0 2.5
v -2 0 2.5
v 2 0 2.5
v 3 0 2.5
v -3 0 -2.5
v -2 0 -2.5
v 2 0 -2.5
v 3 0 -2.5
v -2 0 -3.5
v 2 0 -3.5
v -2 4 2.5
v 2 4 2.5
v -2 4 -2.5
v 2 4 -2.5
v -2 1 2.5
v 2 1 2.5
v -2 1 -2.5
v 2 1 -2.5
v -2 5 3.5
v 2 5 3.5
v -3 5 2.5
v -2 5 2.5
v 2 5 2.5
v 3 5 2.5
v -3 5 -2.5
v -2 5 -2.5
v 2 5 -2.5
v 3 5 -2.5
v -2 5 -3.5
v 2 5 -3.5

# faces
f 3/2/1 2/2/1 1/2/1
f 4/2/1 2/2/1 3/2/1
f 9/1/1 6/1/1 5/1/1
f 10/1/1 6/1/1 9/1/1
f 11/2/1 8/2/1 7/2/1
f 12/2/1 8/2/1 11/2/1
f 15/2/1 14/2/1 13/2/1
f 16/2/1 14/2/1 15/2/1
f 17/2/2 18/2/2 19/2/2
f 19/2/2 18/2/2 20/2/2
f 21/1/2 22/1/2 25/1/2
f 25/1/2 22/1/2 26/1/2
f 23/2/2 24/2/2 27/2/2
f 27/2/2 24/2/2 28/2/2
f 29/2/2 30/2/2 31/2/2
f 31/2/2 30/2/2 32/2/2
f 35/1/3 34/1/3 33/1/3
f 36/1/3 34/1/3 35/1/3
f 39/2/3 38/2/3 37/2/3
f 40/2/3 38/2/3 39/2/3
f 43/2/3 42/2/3 41/2/3
f 44/2/3 42/2/3 43/2/3
f 47/2/3 46/2/3 45/2/3
f 48/2/3 46/2/3 47/2/3
f 49/1/4 50/1/4 51/1/4
f 51/1/4 50/1/4 52/1/4
f 53/2/4 54/2/4 55/2/4
f 55/2/4 54/2/4 56/2/4
f 57/2/4 58/2/4 59/2/4
f 59/2/4 58/2/4 60/2/4
f 61/2/4 62/2/4 63/2/4
f 63/2/4 62/2/4 64/2/4
f 68/1/5 66/1/5 65/1/5
f 69/1/5 66/1/5 68/1/5
f 71/2/5 68/2/5 67/2/5
f 71/2/5 70/2/5 69/2/5
f 71/2/5 69/2/5 68/2/5
f 72/2/5 70/2/5 71/2/5
f 73/2/5 70/2/5 72/2/5
f 74/2/5 70/2/5 73/2/5
f 75/2/5 73/2/5 72/2/5
f 76/2/5 73/2/5 75/2/5
f 79/2/5 78/2/5 77/2/5
f 80/2/5 78/2/5 79/2/5
f 81/2/6 82/2/6 83/2/6
f 83/2/6 82/2/6 84/2/6
f 85/1/6 86/1/6 88/1/6
f 88/1/6 86/1/6 89/1/6
f 87/2/6 88/2/6 91/2/6
f 89/2/6 90/2/6 91/2/6
f 88/2/6 89/2/6 91/2/6
f 91/2/6 90/2/6 92/2/6
f 92/2/6 90/2/6 93/2/6
f 93/2/6 90/2/6 94/2/6
f 92/2/6 93/2/6 95/2/6
f 95/2/6 93/2/6 96/2/6
